<svg width="10" height="11" fill="none" xmlns="http://www.w3.org/2000/svg"><path d="M2.127 9.468c0-.385-.245-.675-.62-.764l.53-.642v-.491H.18v.848h.59v-.296c.179 0 .363-.01.541-.01v.005c-.24.217-.424.502-.625.759l.145.312c.23-.017.586 0 .586.313 0 .223-.206.318-.401.318a.932.932 0 0 1-.592-.251l-.318.49c.251.252.608.37.96.37.58 0 1.06-.347 1.06-.96zm.011-3.499h-.586v.335H.844C.86 5.87 2.07 5.684 2.07 4.86c0-.553-.446-.86-.965-.86a1.07 1.07 0 0 0-.988.603l.474.33c.095-.157.257-.324.453-.324.184 0 .3.1.3.29 0 .469-1.26.625-1.26 1.657 0 .1.016.201.033.302h2.02V5.97zm7.863 1.78a.18.18 0 0 0-.179-.178H3.037c-.1 0-.179.078-.179.179v1.07a.18.18 0 0 0 .179.18h6.785a.184.184 0 0 0 .179-.18V7.75zM2.144 2.734H1.54V.478H.95l-.76.709.397.424c.106-.095.218-.178.279-.301h.011v.067c0 .452-.005.904-.005 1.356H.274v.552h1.87v-.552zM10 4.893a.18.18 0 0 0-.179-.18H3.037c-.1 0-.179.079-.179.18v1.07a.18.18 0 0 0 .179.18h6.785a.184.184 0 0 0 .179-.18v-1.07zm0-2.858a.184.184 0 0 0-.179-.178H3.037a.18.18 0 0 0-.179.178v1.072a.18.18 0 0 0 .179.178h6.785a.184.184 0 0 0 .179-.178V2.035z" fill="#1A1A1A" fill-opacity=".7"/></svg>