<svg width="10" height="9" fill="none" xmlns="http://www.w3.org/2000/svg"><path d="M9.387 8.714c.195 0 .268-.229.268-.39 0-.486-.603-.258-.887-.436-.179-.112-.19-.597-.19-.781l-.006-5.263c0-.2.006-.775.196-.898.279-.173.854.072.854-.413 0-.167-.079-.39-.28-.39-.48 0-.96.038-1.44.038-.49 0-.981-.039-1.472-.039-.201 0-.28.224-.28.391 0 .474.559.251.838.419.195.117.195.686.195.892L7.177 3.63c0 .061 0 .117-.005.179-.073.016-.145.016-.212.016H3.059c-.073 0-.145 0-.218-.016-.005-.062-.005-.118-.005-.179L2.83 1.844c0-.2 0-.775.196-.892.273-.173.825.06.825-.419 0-.167-.078-.39-.279-.39-.468 0-.943.038-1.411.038C1.647.181 1.128.142.615.142.42.142.347.372.347.533c0 .502.597.234.876.407.251.151.212 1.01.212 1.278v4.537l.006.318c0 .195-.006.675-.184.798-.274.19-.787-.011-.787.474 0 .157.083.369.268.369.474 0 .948-.04 1.423-.04.513 0 1.032.04 1.55.04.196 0 .274-.223.274-.39 0-.503-.658-.252-.948-.43-.207-.123-.207-.704-.207-.916l.006-2.07c0-.061 0-.117.005-.173.09-.028.19-.022.285-.022h3.767c.089 0 .19-.006.279.022.005.056.005.112.005.173l.006 2.182c0 .195 0 .664-.184.781-.29.19-.848-.022-.848.474 0 .162.089.369.279.369.49 0 .982-.04 1.473-.04.496 0 .993.04 1.484.04z" fill="#1A1A1A" fill-opacity=".7"/></svg>