<svg width="8" height="9" fill="none" xmlns="http://www.w3.org/2000/svg"><path d="M3.098 7.916c.275.119.536.178.781.178 1.4 0 2.099-.623 2.099-1.869 0-.424-.077-.759-.23-1.005a1.728 1.728 0 0 0-.345-.412 1.542 1.542 0 0 0-.826-.396 3.539 3.539 0 0 0-.469-.062 9.862 9.862 0 0 0-.524-.011c-.272 0-.46.018-.564.056 0 .197-.002.493-.006.887v.882c0 .03-.001.156-.005.379-.004.22-.006.398-.006.536.004.137.013.294.028.469.015.17.037.293.067.368zM3.02 3.753c.156.026.359.039.608.039.305 0 .571-.024.798-.073a1.86 1.86 0 0 0 .614-.245c.182-.12.32-.287.413-.502a1.93 1.93 0 0 0 .145-.793c0-.26-.054-.487-.162-.68a1.16 1.16 0 0 0-.44-.458 2.14 2.14 0 0 0-.603-.246A2.942 2.942 0 0 0 3.7.717c-.186 0-.428.024-.726.073 0 .186.008.467.023.842.015.376.022.659.022.849 0 .1-.002.249-.006.446v.44c0 .172.002.3.006.386zM.001 8.713l.011-.524A8.1 8.1 0 0 1 .486 8.1a3 3 0 0 0 .592-.15.801.801 0 0 0 .067-.151.888.888 0 0 0 .05-.185l.028-.184c.011-.052.017-.12.017-.206.004-.09.005-.153.005-.19v-.368c0-3.653-.04-5.56-.122-5.72C1.108.916 1.067.89 1 .868A1.18 1.18 0 0 0 .749.806 2.684 2.684 0 0 0 .475.767 5.206 5.206 0 0 0 .202.74 2.27 2.27 0 0 1 .034.723L.012.26C.377.252 1.01.232 1.91.198 2.81.161 3.504.142 3.991.142c.086 0 .212.002.38.006h.379c.26 0 .513.024.759.072.249.049.489.127.72.235.23.108.431.24.602.396a1.836 1.836 0 0 1 .57 1.35c0 .194-.032.373-.095.536-.06.16-.132.294-.218.402-.082.104-.2.21-.357.318a3.845 3.845 0 0 1-.407.251c-.116.06-.272.134-.47.223.574.13 1.05.38 1.43.748.383.369.574.83.574 1.384 0 .372-.065.707-.195 1.005-.13.293-.305.535-.525.725-.216.19-.472.348-.77.474a3.77 3.77 0 0 1-.91.274 5.97 5.97 0 0 1-.982.078c-.163 0-.409-.006-.736-.017a23.653 23.653 0 0 0-.737-.017c-.394 0-.965.02-1.713.062-.748.04-1.177.063-1.289.067z" fill="#1A1A1A" fill-opacity=".7"/></svg>