<svg width="6" height="9" fill="none" xmlns="http://www.w3.org/2000/svg"><path d="M.001 8.703l.095-.475c.022-.007.173-.048.452-.122.283-.071.49-.14.625-.207.104-.13.18-.318.229-.564.003-.026.119-.563.346-1.612.227-1.05.439-2.06.636-3.03.197-.975.294-1.528.29-1.658v-.14a.961.961 0 0 0-.307-.1 2.68 2.68 0 0 0-.385-.044 4.477 4.477 0 0 1-.324-.034l.106-.575.67.04.831.038c.235.008.46.012.676.012.178 0 .36-.004.547-.012l.675-.039.552-.039A3.54 3.54 0 0 1 5.61.64c-.111.037-.301.091-.569.162a4.93 4.93 0 0 0-.603.184 2.892 2.892 0 0 0-.128.463l-.045.251-.033.235c-.1.55-.264 1.332-.491 2.343a143.541 143.541 0 0 0-.43 1.981 248.038 248.038 0 0 1-.184.826 8.714 8.714 0 0 0-.09.47 1.687 1.687 0 0 0-.033.317l.006.1c.063.015.407.073 1.032.174-.011.163-.04.347-.09.552a4.437 4.437 0 0 0-.362.017 3.14 3.14 0 0 1-.485-.056 3.135 3.135 0 0 0-.48-.056 87.102 87.102 0 0 0-1.15-.011c-.19 0-.456.017-.798.05-.342.034-.567.054-.675.062z" fill="#1A1A1A" fill-opacity=".7"/></svg>