<svg width="10" height="8" fill="none" xmlns="http://www.w3.org/2000/svg"><path d="M2.858 7.107c0 .1-.078.178-.178.178H.894a.176.176 0 0 1-.179-.178V6.035c0-.1.078-.178.179-.178H2.68c.1 0 .178.078.178.178v1.072zm0-2.143c0 .1-.078.178-.178.178H.894a.176.176 0 0 1-.179-.178V3.892c0-.1.078-.178.179-.178H2.68c.1 0 .178.078.178.178v1.072zm2.857 2.143c0 .1-.078.178-.178.178H3.75a.176.176 0 0 1-.179-.178V6.035c0-.1.079-.178.179-.178h1.786c.1 0 .178.078.178.178v1.072zM2.858 2.82c0 .1-.078.179-.178.179H.894a.176.176 0 0 1-.179-.18V1.75c0-.1.078-.18.179-.18H2.68c.1 0 .178.08.178.18v1.07zm2.857 2.143c0 .1-.078.178-.178.178H3.75a.176.176 0 0 1-.179-.178V3.892c0-.1.079-.178.179-.178h1.786c.1 0 .178.078.178.178v1.072zm2.857 2.143c0 .1-.078.178-.178.178H6.608a.176.176 0 0 1-.178-.178V6.035c0-.1.078-.178.178-.178h1.786c.1 0 .178.078.178.178v1.072zM5.715 2.82c0 .1-.078.179-.178.179H3.75a.176.176 0 0 1-.179-.18V1.75c0-.1.079-.18.179-.18h1.786c.1 0 .178.08.178.18v1.07zm2.857 2.143c0 .1-.078.178-.178.178H6.608a.176.176 0 0 1-.178-.178V3.892c0-.1.078-.178.178-.178h1.786c.1 0 .178.078.178.178v1.072zm0-2.143c0 .1-.078.179-.178.179H6.608a.176.176 0 0 1-.178-.18V1.75c0-.1.078-.18.178-.18h1.786c.1 0 .178.08.178.18v1.07zm.715-1.786a.895.895 0 0 0-.893-.893h-7.5A.895.895 0 0 0 0 1.035v6.072C0 7.597.402 8 .893 8h7.5a.895.895 0 0 0 .893-.893V1.035z" fill="#1A1A1A" fill-opacity=".7"/></svg>