<svg width="11" height="9" fill="none" xmlns="http://www.w3.org/2000/svg"><path d="M3.572 2.642a1.072 1.072 0 1 0-2.143 0 1.072 1.072 0 0 0 2.143 0zm5.715 2.143L6.965 2.464 4.108 5.32l-.893-.893L1.43 6.214v1.071h7.857v-2.5zM9.822.857c.095 0 .179.083.179.178v6.786A.184.184 0 0 1 9.822 8H.894a.184.184 0 0 1-.179-.18V1.036C.715.94.8.857.894.857h8.928zm.893.178a.895.895 0 0 0-.893-.893H.894A.895.895 0 0 0 0 1.035v6.786c0 .491.402.893.893.893h8.928a.896.896 0 0 0 .893-.893V1.035z" fill="#1A1A1A" fill-opacity=".7"/></svg>