<svg width="10" height="10" fill="none" xmlns="http://www.w3.org/2000/svg"><path d="M8.126 7.214a.53.53 0 0 1-.156.374l-.82.814a.556.556 0 0 1-.38.146.536.536 0 0 1-.38-.151L5.24 7.242a.541.541 0 0 1 .029-.787c.184.184.34.402.625.402.296 0 .536-.24.536-.536 0-.285-.218-.44-.402-.625a.541.541 0 0 1 .781-.022l1.16 1.16a.53.53 0 0 1 .157.38zM4.203 3.28a.538.538 0 0 1-.184.407c-.184-.184-.34-.402-.625-.402a.536.536 0 0 0-.536.536c0 .285.218.44.402.625a.524.524 0 0 1-.402.173.536.536 0 0 1-.38-.15l-1.16-1.161a.531.531 0 0 1 0-.754l.82-.815a.56.56 0 0 1 .38-.15c.14 0 .279.056.38.156L4.046 2.9c.1.1.156.24.156.38zm4.994 3.934c0-.43-.161-.832-.468-1.139l-1.161-1.16a1.614 1.614 0 0 0-2.3.022l-.49-.491c.312-.307.49-.726.49-1.166 0-.424-.161-.832-.462-1.133L3.656.992A1.586 1.586 0 0 0 2.518.517c-.424 0-.832.162-1.133.464l-.82.814A1.596 1.596 0 0 0 .09 2.928c0 .43.162.832.469 1.138l1.16 1.161a1.614 1.614 0 0 0 2.3-.022l.49.49a1.634 1.634 0 0 0-.49 1.167c0 .424.162.832.463 1.133l1.15 1.155c.3.307.708.475 1.138.475.424 0 .831-.162 1.133-.464l.82-.814a1.6 1.6 0 0 0 .474-1.133z" fill="#1A1A1A" fill-opacity=".7"/></svg>