<svg width="10" height="8" fill="none" xmlns="http://www.w3.org/2000/svg"><path d="M10.001 6.928a.36.36 0 0 0-.357-.357H.358a.36.36 0 0 0-.357.357v.714A.36.36 0 0 0 .358 8h9.286A.36.36 0 0 0 10 7.642v-.714zM7.858 4.785a.36.36 0 0 0-.357-.357h-5a.36.36 0 0 0-.357.357V5.5a.36.36 0 0 0 .357.357h5a.36.36 0 0 0 .357-.357v-.715zm1.429-2.143a.36.36 0 0 0-.357-.357H1.072a.36.36 0 0 0-.357.357v.715a.36.36 0 0 0 .357.357H8.93a.36.36 0 0 0 .357-.357v-.715zM7.144.5a.36.36 0 0 0-.357-.358H3.215A.36.36 0 0 0 2.858.5v.714a.36.36 0 0 0 .357.357h3.572a.36.36 0 0 0 .357-.357V.5z" fill="#1A1A1A" fill-opacity=".7"/></svg>