<svg width="10" height="9" fill="none" xmlns="http://www.w3.org/2000/svg"><path d="M2.144 7.286a1.072 1.072 0 1 0-2.144 0 1.072 1.072 0 0 0 2.144 0zm0-2.857a1.072 1.072 0 1 0-2.144 0 1.072 1.072 0 0 0 2.144 0zM10 6.75a.184.184 0 0 0-.179-.179H3.037a.184.184 0 0 0-.179.179v1.071c0 .095.084.179.179.179h6.785a.184.184 0 0 0 .179-.179V6.75zM2.144 1.571A1.072 1.072 0 1 0 0 1.572a1.072 1.072 0 0 0 2.144 0zM10 3.893a.184.184 0 0 0-.179-.179H3.037a.184.184 0 0 0-.179.179v1.071c0 .095.084.179.179.179h6.785a.184.184 0 0 0 .179-.179V3.893zm0-2.857a.184.184 0 0 0-.179-.179H3.037a.184.184 0 0 0-.179.179v1.071c0 .095.084.179.179.179h6.785a.184.184 0 0 0 .179-.179V1.036z" fill="#1A1A1A" fill-opacity=".7"/></svg>