<svg width="10" height="8" fill="none" xmlns="http://www.w3.org/2000/svg"><path d="M10.001 6.928v.714c0 .097-.035.18-.106.251A.343.343 0 0 1 9.644 8H.358a.343.343 0 0 1-.251-.107.343.343 0 0 1-.106-.25v-.715c0-.097.035-.18.106-.251a.343.343 0 0 1 .251-.106h9.286c.097 0 .18.035.25.106.072.07.107.154.107.251zM7.858 4.785V5.5a.34.34 0 0 1-.106.25.343.343 0 0 1-.251.107H.358a.343.343 0 0 1-.251-.106.343.343 0 0 1-.106-.251v-.715a.34.34 0 0 1 .106-.25.343.343 0 0 1 .251-.107h7.143c.097 0 .18.035.251.106.07.07.106.155.106.251zm1.429-2.143v.715c0 .096-.036.18-.106.25a.343.343 0 0 1-.251.107H.358a.343.343 0 0 1-.251-.106.343.343 0 0 1-.106-.251v-.715a.34.34 0 0 1 .106-.25.343.343 0 0 1 .251-.107H8.93c.096 0 .18.036.25.106.071.07.107.155.107.251zM7.144.5v.714c0 .097-.036.18-.106.25a.343.343 0 0 1-.251.107H.358a.343.343 0 0 1-.251-.106.343.343 0 0 1-.106-.251V.5c0-.097.035-.18.106-.252A.343.343 0 0 1 .358.142h6.429c.096 0 .18.036.25.106A.345.345 0 0 1 7.144.5z" fill="#1A1A1A" fill-opacity=".7"/></svg>