<svg width="9" height="9" fill="none" xmlns="http://www.w3.org/2000/svg"><path d="M.269.673A1.993 1.993 0 0 1 .018.65L0 .16a8.175 8.175 0 0 1 .848.017c.491.025.8.038.927.038.32 0 .632-.006.937-.017L3.528.17c.208 0 .368-.003.48-.01l-.006.077.011.357v.05a4.66 4.66 0 0 1-.692.05c-.223 0-.37.047-.44.14-.049.052-.073.298-.073.737v.184c.004.07.005.117.005.14l.006 1.277.078 1.563c.023.461.117.837.285 1.127.13.22.309.39.535.514.328.174.657.262.988.262a3.47 3.47 0 0 0 1.066-.156 1.81 1.81 0 0 0 .553-.285c.178-.134.299-.253.362-.357.134-.208.233-.42.296-.636.078-.272.117-.698.117-1.278a9.15 9.15 0 0 0-.022-.714c-.011-.183-.032-.41-.062-.681-.026-.276-.05-.573-.072-.893l-.022-.33c-.019-.249-.064-.412-.134-.49a.565.565 0 0 0-.43-.19l-.558.011-.078-.017.011-.48h.469l1.144.056c.282.011.647-.007 1.093-.056l.1.012c.023.14.034.236.034.284 0 .026-.007.084-.022.173a2.028 2.028 0 0 1-.469.073c-.271.04-.418.072-.44.095a.31.31 0 0 0-.084.228l.005.151c.008.074.012.132.012.173.03.07.07.807.122 2.21.023.725-.005 1.29-.083 1.696a2.27 2.27 0 0 1-.23.681c-.14.242-.349.47-.624.686a3.155 3.155 0 0 1-1.016.497c-.405.123-.88.184-1.423.184-.621 0-1.15-.085-1.585-.256-.442-.175-.775-.402-.999-.681-.226-.283-.38-.646-.463-1.088-.06-.298-.089-.739-.089-1.323V2.079c0-.7-.032-1.096-.095-1.189C.996.756.723.684.27.673zm8.303 7.862v-.357a.174.174 0 0 0-.05-.128.174.174 0 0 0-.128-.05H.18a.174.174 0 0 0-.129.05.174.174 0 0 0-.05.128v.357c0 .052.017.095.05.129.034.033.076.05.129.05h8.214a.174.174 0 0 0 .128-.05.174.174 0 0 0 .05-.129z" fill="#1A1A1A" fill-opacity=".7"/></svg>