<svg width="332" height="69" fill="none" xmlns="http://www.w3.org/2000/svg"><path d="M14.508.046c3.09 0 5.776.582 8.24 2.507 2.596 2.06 4.208 5.194 4.208 9.224s-1.746 7.434-4.567 9.493c-2.463 1.836-5.373 2.24-8.374 2.24H4.21v11.73c0 .27-.269.493-.537.493H.492A.497.497 0 0 1 0 35.242V.583C0 .314.224.046.493.046h14.015zm5.105 5.283C18 4.12 16.12 3.717 13.836 3.717H4.164v16.12h9.09c2.194 0 4.388-.268 6.135-1.433 1.97-1.343 3.224-3.716 3.224-6.671.044-2.91-1.075-5.06-3-6.404zm31.434 25.657c.404-.269.672-.09.806.09L52.84 33c.179.269.044.492-.224.672-1.926 1.298-5.329 2.507-9 2.507-3.941 0-7.165-1.343-9.314-3.806-1.97-2.194-3.09-5.239-3.09-8.776 0-3.359 1.164-6.404 3.134-8.553 1.97-2.15 4.881-3.448 8.642-3.448 3.807 0 6.762 1.523 8.598 3.761 1.746 2.195 2.687 5.284 2.463 9 0 .359-.27.583-.627.583H35.196c.18 1.97.85 3.806 2.06 5.239 1.522 1.836 3.806 2.866 6.717 2.866 2.82.044 5.15-.896 7.075-2.06zm-.671-8.777c-.09-2.149-.806-3.94-1.926-5.238-1.209-1.3-3.09-2.24-5.463-2.24-2.597 0-4.612.94-5.91 2.463-1.12 1.299-1.791 3.135-1.88 5.015h15.179zm57.182-10.567c4.074 0 7.657 1.12 10.164 3.403 2.194 2.06 3.627 5.015 3.627 8.866 0 3.896-1.164 6.717-3 8.642-2.418 2.687-5.955 3.717-9 3.717-2.239 0-3.806-.27-5.553-1.03v12.134a.497.497 0 0 1-.492.493h-2.821c-.269 0-.538-.224-.538-.492v-34.39c0-.313.179-.582.582-.671 1.881-.403 4.478-.672 7.031-.672zm-3.807 20.374c1.568.806 3.001 1.12 5.195 1.12 1.97 0 4.388-.628 6.179-2.419 1.478-1.433 2.373-3.716 2.373-6.806 0-2.821-.895-5.015-2.507-6.582-1.747-1.657-4.209-2.553-7.075-2.553-1.344 0-2.866.18-4.12.314v16.926h-.045zM127.887.045h2.821c.269 0 .493.268.493.537V35.24a.497.497 0 0 1-.493.492h-2.821c-.269 0-.537-.223-.537-.492V.582c.044-.269.313-.537.537-.537zm29.284 30.941c.403-.269.671-.09.806.09l.985 1.925c.179.269.044.492-.224.672-1.926 1.298-5.329 2.507-9.001 2.507-3.94 0-7.164-1.343-9.313-3.806-1.971-2.194-3.09-5.239-3.09-8.776 0-3.359 1.164-6.404 3.134-8.553 1.971-2.15 4.881-3.448 8.643-3.448 3.806 0 6.761 1.523 8.597 3.761 1.746 2.195 2.687 5.284 2.463 9 0 .359-.269.583-.627.583h-18.225c.179 1.97.851 3.806 2.06 5.239 1.522 1.836 3.806 2.866 6.717 2.866 2.821.044 5.149-.896 7.075-2.06zm-.672-8.777c-.09-2.149-.806-3.94-1.926-5.238-1.209-1.3-3.089-2.24-5.462-2.24-2.598 0-4.613.94-5.911 2.463-1.12 1.299-1.791 3.135-1.881 5.015h15.18zm10.882 14.016c-1.343 0-2.418-1.12-2.418-2.463 0-1.298 1.03-2.373 2.418-2.373 1.298 0 2.418 1.03 2.418 2.373 0 1.389-1.12 2.463-2.418 2.463z" fill="#000"/><path d="M211.664 35.24a.497.497 0 0 1-.492.492h-3.09a.497.497 0 0 1-.493-.492V7.343l-11.776 19.3c-.269.403-.493.537-.851.537h-2.284c-.403 0-.582-.09-.85-.537l-11.867-19.3V35.24a.496.496 0 0 1-.492.492h-3.09a.497.497 0 0 1-.492-.492V.582c0-.269.224-.537.492-.537h3.314c.403 0 .627.044.895.537l13.12 21.762L206.918.582c.313-.493.537-.537.94-.537h3.314c.268 0 .492.268.492.537V35.24zm8.911-18.36c-.358.225-.627.09-.717-.178l-.895-1.926c-.179-.313-.09-.492.268-.671 2.418-1.612 5.777-2.463 9.001-2.463 2.239 0 5.015.403 6.896 2.552 1.209 1.343 1.925 3.358 1.925 6.403V35.24a.497.497 0 0 1-.493.492h-2.462a.497.497 0 0 1-.493-.492v-.851h-.224c-2.418 1.433-4.522 1.836-7.119 1.836-2.15 0-4.254-.538-5.866-1.657-1.568-1.164-2.687-2.866-2.687-5.284 0-3.224 1.97-5.06 4.881-6.18 3.179-1.208 7.433-1.521 10.567-1.656v-.806c0-2.104-.358-3.358-1.209-4.343-1.03-1.21-2.731-1.567-4.298-1.567-2.911 0-5.105.985-7.075 2.149zm12.672 14.822v-7.388c-2.463.09-5.373.269-7.791.94-2.239.582-3.986 1.747-3.986 3.806 0 2.91 3.045 4.12 5.956 4.12 2.015.045 3.985-.537 5.821-1.478zm16.657-14.462c-1.299 1.79-1.792 4.611-1.792 6.895V35.24a.496.496 0 0 1-.492.492h-2.866c-.269 0-.537-.224-.537-.492V12.582c0-.269.268-.537.537-.537h2.687c.268 0 .537.268.537.537v2.866h.179c1.209-2.508 3.493-3.806 6.672-3.806 2.284 0 4.12.671 5.642 1.88.269.224.314.403.179.672l-1.164 2.373c-.179.27-.493.314-.806.09-1.254-.896-2.687-1.523-4.523-1.523-1.746 0-3.224.672-4.253 2.105zm21.225 7.522l-3.358 3.045v7.433a.497.497 0 0 1-.493.492h-2.821c-.268 0-.537-.223-.537-.492V.582c0-.269.269-.537.537-.537h2.821c.269 0 .493.268.493.537v23.016l11.508-11.105c.313-.314.537-.493.985-.493h3.224c.627 0 .671.538.313.896l-10.12 9.358 10.613 12.628c.268.358.268.806-.358.806h-3.269c-.493 0-.672-.09-.896-.493l-8.642-10.433zm36.674 6.224c.403-.269.672-.09.806.09l.985 1.925c.18.269.045.492-.223.672-1.926 1.298-5.329 2.507-9.001 2.507-3.94 0-7.164-1.343-9.314-3.806-1.97-2.194-3.089-5.239-3.089-8.776 0-3.359 1.164-6.404 3.134-8.553 1.97-2.15 4.881-3.448 8.642-3.448 3.806 0 6.762 1.523 8.598 3.761 1.746 2.195 2.686 5.284 2.462 9 0 .359-.268.583-.626.583h-18.225c.179 1.97.851 3.806 2.06 5.239 1.522 1.836 3.806 2.866 6.716 2.866 2.821.044 5.15-.896 7.075-2.06zm-.671-8.777c-.09-2.149-.806-3.94-1.926-5.238-1.209-1.3-3.089-2.24-5.463-2.24-2.597 0-4.612.94-5.91 2.463-1.12 1.299-1.791 3.135-1.881 5.015h15.18zm14.101 5.195c0 1.612.224 2.91.806 3.806.671 1.164 1.836 1.746 3.716 1.746 1.433 0 2.777-.358 4.299-1.478.358-.268.627-.224.806.045l.94 2.06c.179.269.045.492-.224.672-1.835 1.298-4.253 1.97-6.761 1.97-2.821 0-4.657-.896-5.821-2.284-1.209-1.522-1.612-3.716-1.612-6.09V15.09h-2.776c-.269 0-.538-.224-.538-.493v-2.015c0-.269.269-.537.538-.537h2.776V7.478c0-.27.269-.538.537-.538h2.821c.269 0 .538.269.538.538v4.567h8.239c.268 0 .537.268.537.537v2.06c0 .269-.269.492-.537.492h-8.239v12.27h-.045z" fill="#206BB2"/><path d="M4.386 55.614h.806l4.389 9.716H8.55l-1.21-2.642H2.238L1.073 65.33H.043l4.343-9.716zM2.64 61.793h4.344l-2.195-4.88-2.149 4.88zm14.375.313h-4.702v3.224h-.94v-7.209h.94v3.09h4.702v-3.09h.94v7.21h-.94v-3.225zm7.071-4.164c2.329 0 3.896 1.567 3.896 3.761 0 2.15-1.612 3.761-3.896 3.761s-3.896-1.567-3.896-3.76c-.044-2.15 1.568-3.762 3.896-3.762zm0 6.672c1.702 0 2.91-1.164 2.91-2.91 0-1.702-1.253-2.911-2.91-2.911-1.701 0-2.91 1.164-2.91 2.91-.045 1.702 1.164 2.91 2.91 2.91zm11.736-2.508H31.12v3.224h-.94v-7.209h.94v3.09h4.702v-3.09h.94v7.21h-.94v-3.225zM39.4 65.33v-7.209h.94v5.866l4.881-5.866h.896v7.21h-.94v-5.867l-4.881 5.866H39.4zm9.409-7.209h.85l3.045 3.806 3-3.806h.806v7.21h-.94v-5.643l-2.866 3.627-3-3.627v5.642h-.94v-7.209h.044zm15.983 3.985h-4.701v3.224h-.94v-7.209h.94v3.09h4.701v-3.09h.94v7.21h-.94v-3.225zm3.538-3.134c.672-.627 1.836-1.03 2.866-1.03 2.015 0 3.045 1.075 3.045 2.91v4.478h-.94v-1.209c-.448.672-1.388 1.299-2.776 1.299-1.612 0-2.687-.851-2.687-2.15 0-1.522 1.343-2.194 3.627-2.194.582 0 1.477.09 1.88.224 0-1.477-.447-2.507-2.238-2.507-.851 0-1.612.358-2.24.85l-.537-.671zm5.016 4.03v-.851c-.448-.134-1.075-.224-1.747-.224-1.701 0-2.776.314-2.776 1.299 0 .85.806 1.388 1.97 1.388 1.388 0 2.24-.985 2.552-1.612zm9.224-4.881v7.21h-.94v-2.687h-2.06l-2.417 2.686h-1.165l2.508-2.776c-1.164-.134-2.015-1.03-2.015-2.15 0-1.208.806-2.283 3.134-2.283h2.956zm-3.089 3.672h2.15v-2.821h-2.15c-1.433 0-2.015.627-2.015 1.433s.761 1.388 2.015 1.388zm17.239 2.149c-.537.985-1.836 1.523-2.955 1.523-2.374 0-3.94-1.478-3.94-3.762 0-2.104 1.522-3.761 3.895-3.761 1.209 0 2.373.537 2.866 1.388l-.717.493c-.537-.672-1.209-1.03-2.15-1.03-1.656 0-2.91 1.209-2.91 2.91 0 1.747 1.254 2.91 3.045 2.91.94 0 1.746-.492 2.24-1.163l.626.492zm7.924 0c-.672 1.03-1.747 1.523-2.956 1.523-2.373 0-3.94-1.478-3.94-3.762 0-2.104 1.299-3.761 3.761-3.761 1.971 0 3.403 1.298 3.403 3.269 0 .268-.044.537-.044.76h-6.135c.045 1.658 1.299 2.598 3 2.598.941 0 1.836-.537 2.284-1.209l.627.582zm-5.91-2.776h5.193c-.044-1.478-.985-2.373-2.462-2.373-1.612 0-2.597 1.03-2.732 2.373zm7.256-3.045h6.806v.85h-2.955v6.315h-.94v-6.314h-2.911v-.85zm8.506 0h.94v2.328h2.105c2.284 0 3 1.075 3 2.419 0 1.253-.761 2.417-3.09 2.417h-2.955v-7.164zm.94 3.224v3.135h1.971c1.612 0 2.149-.583 2.149-1.568 0-.985-.627-1.567-2.149-1.567h-1.971zm17.866-2.328h-4.612v6.313h-.94v-7.209h6.493v7.21h-.941v-6.314zm7.031-1.075c2.329 0 3.896 1.567 3.896 3.761 0 2.15-1.612 3.761-3.896 3.761-2.328 0-3.895-1.567-3.895-3.76 0-2.15 1.567-3.762 3.895-3.762zm0 6.672c1.702 0 2.911-1.164 2.911-2.91 0-1.702-1.254-2.911-2.911-2.911-1.701 0-2.91 1.164-2.91 2.91 0 1.702 1.209 2.91 2.91 2.91zm6.134-6.493h.94v3.448l4.12-3.448h1.253l-3.985 3.314 4.209 3.85h-1.298l-3.672-3.313-.672.582v2.731h-.895v-7.164zm8.643 9.135c.089.045.269.09.358.09.627 0 1.075-.359 1.612-1.702l.179-.448-3.806-7.03h1.12l3.179 5.91 2.418-5.91h1.03l-3 7.165c-1.03 2.418-1.702 2.91-2.732 2.91a2.64 2.64 0 0 1-.627-.09l.269-.895zm13.343-8.239h-4.612v6.313h-.941v-7.209h6.493v7.21h-.94v-6.314zm3.627-.896h.94v3.448l4.12-3.448h1.254l-3.986 3.314 4.209 3.85h-1.298l-3.672-3.313-.671.582v2.731h-.941v-7.164h.045zm8.238 7.209v-7.209h.941v5.866l4.88-5.866h.896v7.21h-.94v-5.867l-4.881 5.866h-.896zm14.463 0v-7.209h.941v5.866l4.88-5.866h.896v7.21h-.94v-5.867l-4.881 5.866h-.896zm20.018-6.313h-4.613v6.313h-.94v-7.209h6.493v7.21h-.94v-6.314zm3.582-.896h.94v1.075c.582-.896 1.657-1.254 2.642-1.254 2.194 0 3.493 1.522 3.493 3.627 0 2.194-1.523 3.85-3.672 3.85-1.119 0-1.836-.268-2.463-.85v3.493h-.94V58.12zm.895 2.418v2.776c.538.94 1.478 1.299 2.418 1.299 1.568 0 2.732-1.21 2.732-2.956 0-1.701-.985-2.865-2.597-2.865-1.299.044-2.239.895-2.553 1.746zm11.821-2.597c2.328 0 3.895 1.567 3.895 3.761 0 2.15-1.612 3.761-3.895 3.761-2.329 0-3.896-1.567-3.896-3.76 0-2.15 1.567-3.762 3.896-3.762zm0 6.672c1.701 0 2.91-1.164 2.91-2.91 0-1.702-1.253-2.911-2.91-2.911-1.702 0-2.911 1.164-2.911 2.91 0 1.702 1.209 2.91 2.911 2.91zm4.926-.134h.806c.851-1.165 1.03-2.866 1.03-4.792v-1.522h5.418v6.314h1.12v2.642h-.896V65.33h-6.582v1.79h-.896v-2.64zm2.687-4.657c0 1.79-.224 3.492-.895 4.612h4.522v-5.463h-3.627v.85zm7.341-.851c.672-.627 1.836-1.03 2.866-1.03 2.015 0 3.045 1.075 3.045 2.91v4.478h-.941v-1.209c-.447.672-1.388 1.299-2.776 1.299-1.612 0-2.686-.851-2.686-2.15 0-1.522 1.343-2.194 3.627-2.194.582 0 1.477.09 1.88.224 0-1.477-.448-2.507-2.239-2.507-.85 0-1.612.358-2.239.85l-.537-.671zm5.015 4.03v-.851c-.448-.134-1.074-.224-1.746-.224-1.702 0-2.776.314-2.776 1.299 0 .85.806 1.388 1.97 1.388 1.388 0 2.284-.985 2.552-1.612zm2.687-4.881h1.165l3.537 3.358v-3.358h.94v3.358l3.538-3.358h1.164l-3.493 3.314 3.672 3.85h-1.209l-3.179-3.313-.493.448v2.865h-.94V62.42l-.582-.403-3.09 3.268h-1.164l3.582-3.85-3.448-3.314zm12.268 7.209v-7.209h.941v5.866l4.881-5.866h.895v7.21h-.94v-5.867l-4.881 5.866h-.896zm14.463-7.209h.941v3.448l4.119-3.448h1.254l-3.985 3.314 4.209 3.85h-1.299l-3.672-3.313-.671.582v2.731h-.941v-7.164h.045zm8.196.851c.672-.627 1.836-1.03 2.866-1.03 2.015 0 3.045 1.075 3.045 2.91v4.478h-.941v-1.209c-.447.672-1.388 1.299-2.776 1.299-1.612 0-2.686-.851-2.686-2.15 0-1.522 1.343-2.194 3.626-2.194.583 0 1.478.09 1.881.224 0-1.477-.448-2.507-2.239-2.507-.85 0-1.612.358-2.239.85l-.537-.671zm4.97 4.03v-.851c-.447-.134-1.074-.224-1.746-.224-1.701 0-2.776.314-2.776 1.299 0 .85.806 1.388 1.97 1.388a2.794 2.794 0 0 0 2.552-1.612zm2.598 1.478h.806c.851-1.165 1.03-2.866 1.03-4.792v-1.522h5.418v6.314h1.119v2.642h-.895V65.33h-6.582v1.79h-.896v-2.64zm2.731-4.657c0 1.79-.223 3.492-.895 4.612h4.522v-5.463h-3.627v.85zm7.39-1.702h.94v1.075c.583-.896 1.657-1.254 2.642-1.254 2.194 0 3.493 1.522 3.493 3.627 0 2.194-1.522 3.85-3.672 3.85-1.119 0-1.836-.268-2.463-.85v3.493h-.94V58.12zm.94 2.418v2.776c.538.94 1.478 1.299 2.418 1.299 1.568 0 2.732-1.21 2.732-2.956 0-1.701-.985-2.865-2.597-2.865-1.344.044-2.239.895-2.553 1.746zm11.817-2.597c2.329 0 3.896 1.567 3.896 3.761 0 2.15-1.612 3.761-3.896 3.761-2.328 0-3.896-1.567-3.896-3.76 0-2.15 1.568-3.762 3.896-3.762zm0 6.672c1.702 0 2.911-1.164 2.911-2.91 0-1.702-1.254-2.911-2.911-2.911-1.701 0-2.91 1.164-2.91 2.91-.045 1.702 1.209 2.91 2.91 2.91zm6.095-6.493h3.045c1.97 0 2.955.448 2.955 1.791 0 .761-.358 1.254-1.03 1.612.896.224 1.299.851 1.299 1.791 0 1.299-1.075 2.015-3.09 2.015h-3.179v-7.209zm.94.85v2.285h2.463c.985 0 1.612-.448 1.612-1.165 0-.895-.896-1.074-2.015-1.074h-2.06v-.045zm0 3.09v2.419h2.149c1.433 0 2.239-.359 2.239-1.21 0-.85-.671-1.164-2.015-1.164h-2.373v-.044z" fill="#000"/><path d="M67.616 31.792l-1.567-.358c0-.09 1.97-7.926 11.194-7.926v1.612c-7.925-.045-9.582 6.403-9.627 6.672z" fill="#206BB2"/><path d="M87.626 32.419a.86.86 0 0 1-.806-.627c-.09-.269-1.702-6.672-9.627-6.672a.803.803 0 0 1-.806-.806c0-.448.358-.806.806-.806 9.224 0 11.194 7.836 11.194 7.926a.857.857 0 0 1-.582.985c-.045-.045-.09 0-.18 0z" fill="#206BB2"/><path d="M77.242 23.597a5.463 5.463 0 1 0 0-10.925 5.463 5.463 0 0 0 0 10.925z" fill="#206BB2"/><path d="M77.241 24.448a6.306 6.306 0 0 1-6.313-6.313 6.306 6.306 0 0 1 6.313-6.314 6.306 6.306 0 0 1 6.314 6.314 6.306 6.306 0 0 1-6.314 6.313zm0-10.925a4.606 4.606 0 0 0-4.612 4.612 4.606 4.606 0 0 0 4.612 4.612 4.606 4.606 0 0 0 4.612-4.612 4.606 4.606 0 0 0-4.612-4.612zm-.004 22.567c5.49 0 9.941-2.526 9.941-5.642 0-3.116-4.45-5.642-9.94-5.642-5.49 0-9.941 2.526-9.941 5.642 0 3.116 4.45 5.642 9.94 5.642z" fill="#206BB2"/><path d="M77.244 36.27c-9.985 0-18.135-8.15-18.135-18.135C59.11 8.15 67.26 0 77.244 0 87.23 0 95.38 8.15 95.38 18.135c0 9.985-8.15 18.135-18.135 18.135zm0-34.568c-9.09 0-16.433 7.388-16.433 16.433s7.388 16.433 16.433 16.433c9.046 0 16.434-7.388 16.434-16.433S86.29 1.702 77.244 1.702z" fill="#206BB2"/><path opacity=".99" d="M56.917 39.315a.85.85 0 0 1-.582-.224.838.838 0 0 1 0-1.165l8.104-8.104a.838.838 0 0 1 1.165 0 .838.838 0 0 1 0 1.164l-8.105 8.105c-.18.134-.358.224-.582.224z" fill="#206BB2"/></svg>