<svg width="134" height="134" fill="none" xmlns="http://www.w3.org/2000/svg"><path d="M31.908 70.196h6.387v6.387h6.382v6.383H12.77v-6.383h6.383v-12.77h12.77v6.383h-.014zm82.958 57.426h6.374v-6.383h-6.374v6.383zM38.29 70.196h6.383v-6.383H38.29v6.383zm89.323 57.426H134v-6.383h-6.387v6.383zM51.06 134h12.755v-6.383H51.06V134zm57.419 0v-6.383h-6.387V134h6.387zm-25.52 0h6.382v-12.765h-6.383V134zM31.907 51.052v6.383H51.05v-6.383H31.908zm-6.374 6.379v-6.383h-12.77v12.765h6.383V57.43h6.387zm19.139-12.766H.009V.005h44.664v44.66zM38.29 6.387H6.382v31.9H38.29v-31.9zM12.765 121.24h19.138v-19.143H12.765v19.143zm63.806-6.387v6.387h6.392v-6.387H76.57zM31.908 12.77H12.769v19.134h19.139V12.77zM133.996.004V44.67H89.332V.004h44.664zm-6.383 6.383H95.714v31.9h31.899v-31.9zM0 89.326h44.668v44.665H0V89.326zm6.387 38.296h31.908V95.713H6.387v31.909zm0-76.57H0v31.91h6.387v-31.91zm82.945 31.9v6.374h6.382v-6.374h-6.382zm-19.143 25.526v-6.382h-6.378v6.387H51.055v12.77h12.756v6.382h6.378v-12.77h6.387v-6.382h-6.387v-.005zm-19.13-82.947h12.757v-6.392H51.06v6.392zm51.038 51.048h12.774v6.382h6.378V63.822h-6.378v-12.77h-6.392v19.144h-19.13v6.387h6.383v6.383h6.383v-6.383h-.018v-.004zm6.382 19.134h-6.387v-6.387H95.71v12.77H76.57v6.387h12.774v12.77h6.383v6.382h6.382v-12.77h25.517v-6.382h-19.139v-12.77h-.009zm0 0h6.392v-12.76h-6.392v12.76zm-51.046 0v-6.387h6.373v-6.374h6.379V76.57h6.386V63.8H95.71V51.03h-6.383v6.383h-6.382V31.89h-6.382V19.12h6.382V0h-6.382v12.765H70.18V0H51.042v12.765h6.382V6.383h6.374v12.756h6.382v19.143h6.382v6.383H70.18v12.766h-6.382V44.665h-6.374v-6.378h-6.382v12.765h6.382v6.383h-6.382v19.148h6.382v-12.77h6.374v12.77h-6.374v6.383h-6.382v19.13h12.756v-6.383h-6.365zm70.18 6.383v-6.383h-12.756v6.383h12.756zm-6.382-89.326h-19.134v19.134h19.134V12.77zM70.189 95.713h12.774v-6.387H76.57v-6.374h-6.386v12.761h.004zm12.77-12.76V76.57h-6.392v6.382h6.391zM121.23 57.43H134v-6.382h-12.769v6.383zm6.382 51.048H134v-6.382h-6.387v6.382zm0-38.282H134v-6.383h-6.387v6.383zM70.189 38.287h-6.378v6.383h6.378v-6.383z" fill="#000"/></svg>