<svg width="54" height="8" fill="none" xmlns="http://www.w3.org/2000/svg"><path d="M3.912 0l1.21 2.45 2.703.392L5.869 4.75l.461 2.693L3.912 6.17 1.494 7.44l.462-2.692L0 2.843l2.703-.393L3.913 0zm11.329 0l1.21 2.45 2.703.392-1.956 1.907.461 2.693-2.418-1.271-2.418 1.27.462-2.692-1.956-1.906 2.703-.393L15.242 0zM26.57 0l1.21 2.45 2.703.392-1.957 1.907.462 2.693L26.57 6.17l-2.418 1.27.462-2.692-1.956-1.906 2.703-.393L26.571 0zM37.9 0l1.208 2.45 2.704.392-1.956 1.907.461 2.693L37.9 6.17l-2.418 1.27.462-2.692-1.956-1.906 2.703-.393L37.9 0zm11.328 0l1.21 2.45 2.703.392-1.956 1.907.461 2.693-2.418-1.271-2.418 1.27.462-2.692-1.956-1.906 2.703-.393L49.23 0z" fill="#FAC917"/></svg>