<svg width="73" height="70" fill="none" xmlns="http://www.w3.org/2000/svg"><g filter="url(#filter0_d)" fill="#62BB96"><path d="M43.499 41.138l-6.833-3.153-3.283-2.773-5.274 5.256h-.004l2.276 15.247a.202.202 0 0 1-.036.149l-2.38 3.263a.201.201 0 0 1-.326 0l-2.38-3.263a.201.201 0 0 1-.036-.15l2.276-15.246h-.003l-5.275-5.256-3.282 2.773-6.833 3.153c-1.011.415-2.005 1.046-2.51 2.145 0 0-7.427 17.717-3.399 17.717h43.21c4.029 0-3.398-17.717-3.398-17.717-.44-1.054-1.5-1.73-2.51-2.145zm20.506-37.19C61.493 2.047 58.167 1 54.637 1c-3.53 0-6.858 1.047-9.368 2.948-2.577 1.95-3.996 4.563-3.996 7.358 0 2.389 1.068 4.696 3.015 6.53v7.106a.781.781 0 0 0 1.202.655l6.484-4.189c.872.136 1.766.204 2.663.204 3.53 0 6.857-1.046 9.368-2.947C66.58 16.715 68 14.1 68 11.306s-1.419-5.408-3.995-7.358zm-1.726 12.427c-2.018 1.527-4.732 2.368-7.642 2.368-.75 0-1.498-.057-2.224-.17l-1.076-.167-4.185 2.704v-4.514l-.902-.85c-1.363-1.284-2.114-2.86-2.114-4.44 0-1.873 1.015-3.674 2.858-5.069 2.017-1.527 4.731-2.367 7.642-2.367 2.911 0 5.625.84 7.642 2.367 1.843 1.395 2.858 3.195 2.858 5.07 0 1.873-1.014 3.673-2.857 5.068z"/><path d="M27.802 36.621c5.212 0 12.203-6.524 12.322-17.464.075-7.591-3.533-12.135-12.322-12.135-8.79 0-12.398 4.544-12.322 12.135.12 10.94 6.222 17.464 12.322 17.464zm-2.476-14.415c6.372.68 11.927-8.25 11.837-.254-.054 4.786-4.484 12.013-9.36 12.013-5.117 0-8.648-6.006-9.36-12.01-.772-6.512 11.156-5.028 6.883.251z"/></g><path d="M22.18 35.267l.36-.325 10.077-.325.762.607.511 2.516v13.422l-4.22 8.825-7.13-2.022-.36-22.698z" fill="#fff"/><path d="M17.895 22.084c0-6.667 4.447-7.234 6.67-6.685l8.274-.52 5.632 2.908c.014 2.054.034 6.224 0 6.467-.044.304-1.213 5.512-5.329 9.245-3.292 2.987-7.523 1.94-9.227 1.042-2.007-1.374-6.02-5.79-6.02-12.457zm34.222-1.911l-6.411 3.602c.39-.434-.347-5.73-1.3-7.335-.953-1.606-.953-4.688-1.646-6.164-.693-1.475 2.253-2.257 3.855-5.469 1.603-3.212 6.715-.868 10.96-2.127 4.245-1.258 8.49 6.25 9.704 8.334.97 1.667-3.177 5.383-5.372 7.032l-9.79 2.127z" fill="#fff"/><path d="M43.499 41.138l-6.833-3.153-3.283-2.773-5.274 5.256h-.004l2.276 15.247a.202.202 0 0 1-.036.149l-2.38 3.263a.201.201 0 0 1-.326 0l-2.38-3.263a.201.201 0 0 1-.036-.15l2.276-15.246h-.003l-5.275-5.256-3.282 2.773-6.833 3.153c-1.011.415-2.005 1.046-2.51 2.145 0 0-7.427 17.717-3.399 17.717h43.21c4.029 0-3.398-17.717-3.398-17.717-.44-1.054-1.5-1.73-2.51-2.145zm20.506-37.19C61.493 2.047 58.167 1 54.637 1c-3.53 0-6.858 1.047-9.368 2.948-2.577 1.95-3.996 4.563-3.996 7.358 0 2.389 1.068 4.696 3.015 6.53v7.106a.781.781 0 0 0 1.202.655l6.484-4.189c.872.136 1.766.204 2.663.204 3.53 0 6.857-1.046 9.368-2.947C66.58 16.715 68 14.1 68 11.306s-1.419-5.408-3.995-7.358zm-1.726 12.427c-2.018 1.527-4.732 2.368-7.642 2.368-.75 0-1.498-.057-2.224-.17l-1.076-.167-4.185 2.704v-4.514l-.902-.85c-1.363-1.284-2.114-2.86-2.114-4.44 0-1.873 1.015-3.674 2.858-5.069 2.017-1.527 4.731-2.367 7.642-2.367 2.911 0 5.625.84 7.642 2.367 1.843 1.395 2.858 3.195 2.858 5.07 0 1.873-1.014 3.673-2.857 5.068z" fill="#2C6BF7"/><path d="M27.802 36.621c5.212 0 12.203-6.524 12.322-17.464.075-7.591-3.533-12.135-12.322-12.135-8.79 0-12.398 4.544-12.322 12.135.12 10.94 6.222 17.464 12.322 17.464zm-2.476-14.415c6.372.68 11.927-8.25 11.837-.254-.054 4.786-4.484 12.013-9.36 12.013-5.117 0-8.648-6.006-9.36-12.01-.772-6.512 11.156-5.028 6.883.251z" fill="#2C6BF7"/><defs><filter id="filter0_d" x="0" y="0" width="73" height="70" filterUnits="userSpaceOnUse" color-interpolation-filters="sRGB"><feFlood flood-opacity="0" result="BackgroundImageFix"/><feColorMatrix in="SourceAlpha" values="0 0 0 0 0 0 0 0 0 0 0 0 0 0 0 0 0 0 127 0"/><feOffset dy="4"/><feGaussianBlur stdDeviation="2.5"/><feColorMatrix values="0 0 0 0 0.172549 0 0 0 0 0.419608 0 0 0 0 0.968627 0 0 0 0.3 0"/><feBlend in2="BackgroundImageFix" result="effect1_dropShadow"/><feBlend in="SourceGraphic" in2="effect1_dropShadow" result="shape"/></filter></defs></svg>