<svg width="59" height="68" fill="none" xmlns="http://www.w3.org/2000/svg"><g filter="url(#filter0_d)" fill="#62BB96"><path d="M33.227 39.76c-.214-.216-.485-.377-.765-.51-.609-.292-1.274-.469-1.936-.628v4.702c1.074-.11 2.306-.468 2.87-1.388.268-.44.322-.979.212-1.468a1.434 1.434 0 0 0-.381-.709zm-7.869-8.471c-.17.273-.276.583-.305.913-.03.331-.013.699.1 1.01.109.297.335.516.57.692.262.198.55.352.845.483.247.11.524.214.823.316V30c-.755.178-1.581.559-2.033 1.289z"/><path d="M32.37 13.62c4.385-3.706 7.315-12.057 5.512-12.422-2.396-.485-7.598 1.643-10.113 2.018-3.567.434-7.451-3.891-9.631-1.48-1.773 1.96 1.27 9.088 6.033 12.193-14.208 7.027-34.178 42.3.66 44.859 48.206 3.541 24.068-38.321 7.54-45.168zm4.14 27.818c-.148 1.375-.872 2.619-1.955 3.463-1.143.891-2.577 1.306-4.001 1.422v1.52a1.422 1.422 0 0 1-2.01 1.296 1.44 1.44 0 0 1-.826-1.297v-1.66a9.257 9.257 0 0 1-.726-.169c-1.332-.368-2.567-1.085-3.469-2.147a6.297 6.297 0 0 1-1.246-2.294c-.046-.158-.095-.318-.111-.483a1.428 1.428 0 0 1 1.537-1.564 1.43 1.43 0 0 1 1.219.972c.054.165.09.333.151.496.06.161.133.319.218.468.169.295.38.566.623.802.5.486 1.139.801 1.804.99v-5.646c-1.3-.339-2.643-.776-3.718-1.617a4.347 4.347 0 0 1-1.255-1.517c-.306-.634-.433-1.34-.438-2.042a4.892 4.892 0 0 1 .425-2.068 5.042 5.042 0 0 1 1.163-1.607c1.044-.967 2.432-1.506 3.823-1.704v-1.578c0-.406.177-.8.48-1.069a1.423 1.423 0 0 1 1.53-.227c.498.23.826.745.826 1.296v1.569c.185.024.37.052.554.085 1.366.249 2.703.817 3.702 1.808a5.445 5.445 0 0 1 1.334 2.16c.053.166.107.337.133.51.04.275 0 .56-.118.813a1.43 1.43 0 0 1-1.347.821 1.431 1.431 0 0 1-1.261-.913c-.06-.156-.09-.321-.15-.476a2.519 2.519 0 0 0-.232-.45 2.715 2.715 0 0 0-.67-.707c-.568-.422-1.257-.642-1.946-.765v5.402c.819.197 1.638.412 2.422.724 1.186.47 2.309 1.191 2.956 2.328-.1-.177-.198-.35.003.006.198.35.104.183.004.008.515.913.684 2.004.572 3.04z"/></g><path fill="#fff" d="M21.348 23.452h18.709v27.129H21.348z"/><path d="M33.227 39.76c-.214-.216-.485-.377-.765-.51-.609-.292-1.274-.469-1.936-.628v4.702c1.074-.11 2.306-.468 2.87-1.388.268-.44.322-.979.212-1.468a1.434 1.434 0 0 0-.381-.709zm-7.869-8.471c-.17.273-.276.583-.305.913-.03.331-.013.699.1 1.01.109.297.335.516.57.692.262.198.55.352.845.483.247.11.524.214.823.316V30c-.755.178-1.581.559-2.033 1.289z" fill="#2C6BF7"/><path d="M32.37 13.62c4.385-3.706 7.315-12.057 5.512-12.422-2.396-.485-7.598 1.643-10.113 2.018-3.567.434-7.451-3.891-9.631-1.48-1.773 1.96 1.27 9.088 6.033 12.193-14.208 7.027-34.178 42.3.66 44.859 48.206 3.541 24.068-38.321 7.54-45.168zm4.14 27.818c-.148 1.375-.872 2.619-1.955 3.463-1.143.891-2.577 1.306-4.001 1.422v1.52a1.422 1.422 0 0 1-2.01 1.296 1.44 1.44 0 0 1-.826-1.297v-1.66a9.257 9.257 0 0 1-.726-.169c-1.332-.368-2.567-1.085-3.469-2.147a6.297 6.297 0 0 1-1.246-2.294c-.046-.158-.095-.318-.111-.483a1.428 1.428 0 0 1 1.537-1.564 1.43 1.43 0 0 1 1.219.972c.054.165.09.333.151.496.06.161.133.319.218.468.169.295.38.566.623.802.5.486 1.139.801 1.804.99v-5.646c-1.3-.339-2.643-.776-3.718-1.617a4.347 4.347 0 0 1-1.255-1.517c-.306-.634-.433-1.34-.438-2.042a4.892 4.892 0 0 1 .425-2.068 5.042 5.042 0 0 1 1.163-1.607c1.044-.967 2.432-1.506 3.823-1.704v-1.578c0-.406.177-.8.48-1.069a1.423 1.423 0 0 1 1.53-.227c.498.23.826.745.826 1.296v1.569c.185.024.37.052.554.085 1.366.249 2.703.817 3.702 1.808a5.445 5.445 0 0 1 1.334 2.16c.053.166.107.337.133.51.04.275 0 .56-.118.813a1.43 1.43 0 0 1-1.347.821 1.431 1.431 0 0 1-1.261-.913c-.06-.156-.09-.321-.15-.476a2.519 2.519 0 0 0-.232-.45 2.715 2.715 0 0 0-.67-.707c-.568-.422-1.257-.642-1.946-.765v5.402c.819.197 1.638.412 2.422.724 1.186.47 2.309 1.191 2.956 2.328-.1-.177-.198-.35.003.006.198.35.104.183.004.008.515.913.684 2.004.572 3.04z" fill="#2C6BF7"/><defs><filter id="filter0_d" x=".445" y="0" width="57.811" height="68" filterUnits="userSpaceOnUse" color-interpolation-filters="sRGB"><feFlood flood-opacity="0" result="BackgroundImageFix"/><feColorMatrix in="SourceAlpha" values="0 0 0 0 0 0 0 0 0 0 0 0 0 0 0 0 0 0 127 0"/><feOffset dy="4"/><feGaussianBlur stdDeviation="2.5"/><feColorMatrix values="0 0 0 0 0.172549 0 0 0 0 0.419608 0 0 0 0 0.968627 0 0 0 0.3 0"/><feBlend in2="BackgroundImageFix" result="effect1_dropShadow"/><feBlend in="SourceGraphic" in2="effect1_dropShadow" result="shape"/></filter></defs></svg>