<svg width="15" height="15" viewBox="0 0 15 15" fill="none" xmlns="http://www.w3.org/2000/svg">
<path d="M0.0629418 9.64216C0.158244 9.60982 3.91476 7.13592 3.91476 7.13592C3.91476 7.13592 4.27218 6.97427 4.39131 7.05512C4.74869 7.33808 5.79439 9.48051 6.25765 10.6932C6.33707 10.8953 6.51215 10.8145 6.49591 10.6932C6.40061 9.98176 8.44167 6.7317 9.47412 5.19561C11.7773 1.63836 13.0215 1.00507 14.7952 0.0214331C14.8746 -0.0189965 15.0334 -0.0142643 14.9937 0.142703C14.3187 2.81064 14.6099 3.75385 14.7555 5.55942C14.7729 5.77564 14.9143 6.00407 14.7555 6.08492C10.3874 8.63158 8.50785 11.9598 6.65475 14.8972C6.49591 15.0993 6.37016 14.9502 6.337 14.8972C4.11334 11.3399 0.658619 9.8847 0.0629418 9.80385C0.0231942 9.80385 -0.0562167 9.72301 0.0629418 9.64216Z" fill="#00DD80"/>
</svg>
