<svg width="6" height="6" viewBox="0 0 6 6" fill="none" xmlns="http://www.w3.org/2000/svg">
<path d="M3.53063 3.00006L5.89006 0.640539C6.03665 0.494069 6.03665 0.256416 5.89006 0.109946C5.74347 -0.0366487 5.50608 -0.0366487 5.35949 0.109946L3.00006 2.46947L0.640512 0.109946C0.493923 -0.0366487 0.25653 -0.0366487 0.109941 0.109946C-0.0366471 0.256416 -0.0366471 0.494069 0.109941 0.640539L2.46949 3.00006L0.109941 5.35959C-0.0366471 5.50606 -0.0366471 5.74371 0.109941 5.89018C0.183236 5.96335 0.279294 6 0.375227 6C0.47116 6 0.567218 5.96335 0.640512 5.89005L3.00006 3.53053L5.35949 5.89005C5.43278 5.96335 5.52884 6 5.62477 6C5.72071 6 5.81676 5.96335 5.89006 5.89005C6.03665 5.74358 6.03665 5.50593 5.89006 5.35946L3.53063 3.00006Z" fill="#FF2828"/>
</svg>
