<svg width="9" height="9" viewBox="0 0 9 9" fill="none" xmlns="http://www.w3.org/2000/svg">
<path d="M0.268834 0.672502C0.131185 0.665062 0.0474795 0.657622 0.0177176 0.650181L0.000976562 0.15911C0.0493397 0.155389 0.123744 0.153529 0.224191 0.153529C0.447405 0.153529 0.655739 0.16097 0.849191 0.175851C1.34026 0.201892 1.64904 0.214913 1.77553 0.214913C2.09547 0.214913 2.40797 0.209333 2.71303 0.198172C3.14458 0.183291 3.41616 0.173991 3.52776 0.170271C3.7361 0.170271 3.89607 0.16655 4.00767 0.15911L4.00209 0.237235L4.01325 0.594377V0.644601C3.79004 0.678083 3.55938 0.694824 3.32129 0.694824C3.09807 0.694824 2.95113 0.741327 2.88044 0.834333C2.83208 0.886416 2.8079 1.13195 2.8079 1.57094C2.8079 1.6193 2.8079 1.68069 2.8079 1.75509C2.81162 1.82578 2.81348 1.87228 2.81348 1.8946L2.81906 3.1725L2.89718 4.735C2.9195 5.19631 3.01437 5.57206 3.18178 5.86223C3.31199 6.08173 3.49056 6.25286 3.71749 6.37563C4.04488 6.55048 4.37412 6.6379 4.70522 6.6379C5.09212 6.6379 5.44741 6.58582 5.77107 6.48165C5.9794 6.41469 6.16355 6.31982 6.32352 6.19706C6.50209 6.06313 6.623 5.94408 6.68624 5.83991C6.82017 5.63158 6.91876 5.41953 6.982 5.20375C7.06013 4.93218 7.09919 4.50621 7.09919 3.92585C7.09919 3.63195 7.09175 3.39386 7.07687 3.21157C7.06571 3.02927 7.04525 2.80234 7.01549 2.53076C6.98944 2.25546 6.96526 1.95784 6.94294 1.6379L6.92062 1.30866C6.90202 1.05941 6.85738 0.895717 6.78669 0.817592C6.6602 0.687384 6.51697 0.624139 6.357 0.62786L5.79897 0.639021L5.72084 0.622279L5.732 0.142368H6.20075L7.34473 0.198172C7.62746 0.209333 7.99205 0.190732 8.43848 0.142368L8.53892 0.153529C8.56125 0.294899 8.57241 0.389764 8.57241 0.438127C8.57241 0.464169 8.56497 0.521833 8.55008 0.611118C8.38267 0.655762 8.22642 0.679943 8.08133 0.683663C7.80976 0.724586 7.66281 0.756208 7.64049 0.778529C7.58468 0.834333 7.55678 0.910598 7.55678 1.00732C7.55678 1.03337 7.55864 1.08359 7.56236 1.15799C7.5698 1.2324 7.57352 1.29006 7.57352 1.33098C7.60328 1.40167 7.64421 2.13828 7.69629 3.54081C7.71861 4.26625 7.69071 4.83173 7.61258 5.23723C7.55678 5.51997 7.48052 5.74691 7.38379 5.91804C7.24242 6.15985 7.03409 6.38865 6.75879 6.60442C6.47977 6.81648 6.14123 6.98203 5.74316 7.10107C5.33766 7.22384 4.86333 7.28523 4.32017 7.28523C3.69889 7.28523 3.17062 7.19966 2.73535 7.02853C2.29264 6.85368 1.95968 6.62674 1.73647 6.34773C1.50953 6.06499 1.35514 5.70226 1.2733 5.25956C1.21377 4.96194 1.18401 4.52109 1.18401 3.93701V2.07875C1.18401 1.37935 1.15239 0.983142 1.08915 0.890136C0.99614 0.756208 0.722703 0.683663 0.268834 0.672502ZM8.57241 8.53523V8.17808C8.57241 8.126 8.55566 8.08322 8.52218 8.04973C8.4887 8.01625 8.44592 7.99951 8.39383 7.99951H0.179548C0.127465 7.99951 0.0846819 8.01625 0.0511998 8.04973C0.0177176 8.08322 0.000976562 8.126 0.000976562 8.17808V8.53523C0.000976562 8.58731 0.0177176 8.63009 0.0511998 8.66357C0.0846819 8.69706 0.127465 8.7138 0.179548 8.7138H8.39383C8.44592 8.7138 8.4887 8.69706 8.52218 8.66357C8.55566 8.63009 8.57241 8.58731 8.57241 8.53523Z" fill="#1A1A1A" fill-opacity="0.7"/>
</svg>
