<svg width="10" height="11" viewBox="0 0 10 11" fill="none" xmlns="http://www.w3.org/2000/svg">
<path d="M2.12709 9.46826C2.12709 9.08322 1.88156 8.79304 1.50767 8.70375L2.03781 8.06201V7.57094H0.179548V8.41915H0.771066V8.1234C0.949637 8.1234 1.13379 8.11223 1.31236 8.11223V8.11782C1.07241 8.33545 0.888253 8.62005 0.687361 8.87674L0.83245 9.18924C1.06124 9.1725 1.41839 9.18924 1.41839 9.50174C1.41839 9.72496 1.21191 9.81982 1.0166 9.81982C0.804548 9.81982 0.575753 9.70822 0.425084 9.56871L0.107003 10.0598C0.358119 10.3109 0.715262 10.4281 1.06682 10.4281C1.64718 10.4281 2.12709 10.0821 2.12709 9.46826ZM2.13825 5.96938H1.55232V6.3042H0.843611C0.860352 5.86893 2.07129 5.68478 2.07129 4.85889C2.07129 4.30643 1.62486 3.99951 1.10589 3.99951C0.68178 3.99951 0.302316 4.21715 0.118164 4.60219L0.592494 4.93143C0.687361 4.77518 0.849191 4.60777 1.0445 4.60777C1.22866 4.60777 1.34584 4.70822 1.34584 4.89795C1.34584 5.3667 0.0846819 5.52295 0.0846819 6.55532C0.0846819 6.65576 0.101423 6.75621 0.118164 6.85665H2.13825V5.96938ZM10.001 7.74951C10.001 7.64907 9.91727 7.57094 9.82241 7.57094H3.03669C2.93624 7.57094 2.85812 7.64907 2.85812 7.74951V8.82094C2.85812 8.91581 2.93624 8.99951 3.03669 8.99951H9.82241C9.91727 8.99951 10.001 8.91581 10.001 8.82094V7.74951ZM2.14383 2.73277H1.54116V0.478306H0.949637L0.190709 1.18701L0.586914 1.61112C0.692941 1.51625 0.804548 1.43255 0.865932 1.30978H0.877093V1.37674C0.877093 1.82875 0.871512 2.28076 0.871512 2.73277H0.274414V3.28523H2.14383V2.73277ZM10.001 4.89237C10.001 4.79192 9.91727 4.7138 9.82241 4.7138H3.03669C2.93624 4.7138 2.85812 4.79192 2.85812 4.89237V5.9638C2.85812 6.05866 2.93624 6.14237 3.03669 6.14237H9.82241C9.91727 6.14237 10.001 6.05866 10.001 5.9638V4.89237ZM10.001 2.03523C10.001 1.94036 9.91727 1.85665 9.82241 1.85665H3.03669C2.93624 1.85665 2.85812 1.94036 2.85812 2.03523V3.10665C2.85812 3.20152 2.93624 3.28523 3.03669 3.28523H9.82241C9.91727 3.28523 10.001 3.20152 10.001 3.10665V2.03523Z" fill="#1A1A1A" fill-opacity="0.7"/>
</svg>
