<svg width="10" height="9" viewBox="0 0 10 9" fill="none" xmlns="http://www.w3.org/2000/svg">
<path d="M2.14383 7.28571C2.14383 6.6942 1.66392 6.21429 1.07241 6.21429C0.480887 6.21429 0.000976562 6.6942 0.000976562 7.28571C0.000976562 7.87723 0.480887 8.35714 1.07241 8.35714C1.66392 8.35714 2.14383 7.87723 2.14383 7.28571ZM2.14383 4.42857C2.14383 3.83705 1.66392 3.35714 1.07241 3.35714C0.480887 3.35714 0.000976562 3.83705 0.000976562 4.42857C0.000976562 5.02009 0.480887 5.5 1.07241 5.5C1.66392 5.5 2.14383 5.02009 2.14383 4.42857ZM10.001 6.75C10.001 6.65513 9.91727 6.57143 9.82241 6.57143H3.03669C2.94183 6.57143 2.85812 6.65513 2.85812 6.75V7.82143C2.85812 7.91629 2.94183 8 3.03669 8H9.82241C9.91727 8 10.001 7.91629 10.001 7.82143V6.75ZM2.14383 1.57143C2.14383 0.97991 1.66392 0.499999 1.07241 0.499999C0.480887 0.499999 0.000976562 0.97991 0.000976562 1.57143C0.000976562 2.16295 0.480887 2.64286 1.07241 2.64286C1.66392 2.64286 2.14383 2.16295 2.14383 1.57143ZM10.001 3.89286C10.001 3.79799 9.91727 3.71429 9.82241 3.71429H3.03669C2.94183 3.71429 2.85812 3.79799 2.85812 3.89286V4.96429C2.85812 5.05915 2.94183 5.14286 3.03669 5.14286H9.82241C9.91727 5.14286 10.001 5.05915 10.001 4.96429V3.89286ZM10.001 1.03571C10.001 0.940848 9.91727 0.857143 9.82241 0.857143H3.03669C2.94183 0.857143 2.85812 0.940848 2.85812 1.03571V2.10714C2.85812 2.20201 2.94183 2.28571 3.03669 2.28571H9.82241C9.91727 2.28571 10.001 2.20201 10.001 2.10714V1.03571Z" fill="#1A1A1A" fill-opacity="0.7"/>
</svg>
