<svg width="6" height="9" viewBox="0 0 6 9" fill="none" xmlns="http://www.w3.org/2000/svg">
<path d="M0.000976562 8.70264L0.0958426 8.22831C0.118164 8.22087 0.268834 8.17994 0.547852 8.10554C0.83059 8.03485 1.03892 7.96603 1.17285 7.89907C1.27702 7.76886 1.35328 7.58098 1.40165 7.33545C1.40537 7.30941 1.52069 6.77183 1.74763 5.72273C1.97456 4.67362 2.18662 3.66357 2.38379 2.69259C2.58096 1.71789 2.67769 1.16543 2.67397 1.03523V0.895717C2.58468 0.847354 2.48238 0.813872 2.36705 0.795271C2.25544 0.772949 2.12709 0.758068 1.982 0.750627C1.83691 0.739467 1.72903 0.728306 1.65834 0.717146L1.76437 0.142368C1.88714 0.149809 2.11035 0.16283 2.43401 0.181431C2.75767 0.196312 3.03483 0.209333 3.26549 0.220493C3.49986 0.227934 3.72494 0.231654 3.94071 0.231654C4.11928 0.231654 4.30157 0.227934 4.48758 0.220493C4.67732 0.209333 4.90239 0.196312 5.16281 0.181431C5.42694 0.16283 5.6111 0.149809 5.71526 0.142368C5.69666 0.287458 5.66132 0.453008 5.60924 0.639021C5.49763 0.676223 5.3079 0.730166 5.04004 0.800851C4.7759 0.867815 4.57501 0.929199 4.43736 0.985002C4.4076 1.05569 4.38156 1.13567 4.35924 1.22496C4.33691 1.31052 4.32017 1.38493 4.30901 1.44817C4.29785 1.5077 4.28297 1.5914 4.26437 1.69929C4.24949 1.80718 4.23833 1.8853 4.23089 1.93366C4.13044 2.48426 3.96675 3.26551 3.73982 4.27741C3.5166 5.2856 3.37337 5.94594 3.31013 6.25844C3.30269 6.29192 3.27851 6.39981 3.23758 6.5821C3.19666 6.76439 3.15946 6.9318 3.12598 7.08433C3.09249 7.23686 3.06273 7.39311 3.03669 7.55308C3.01065 7.70933 2.99949 7.81536 3.00321 7.87116L3.00879 7.97161C3.07203 7.98649 3.41616 8.04415 4.04116 8.1446C4.02999 8.30829 4.00023 8.49244 3.95187 8.69706C3.91095 8.69706 3.84956 8.69892 3.76772 8.70264C3.68959 8.71008 3.63007 8.7138 3.58915 8.7138C3.48126 8.7138 3.31943 8.6952 3.10366 8.65799C2.88788 8.62079 2.72791 8.60219 2.62374 8.60219C2.11035 8.59475 1.72717 8.59103 1.47419 8.59103C1.28446 8.59103 1.01846 8.60777 0.6762 8.64125C0.333938 8.67473 0.108863 8.6952 0.000976562 8.70264Z" fill="#1A1A1A" fill-opacity="0.7"/>
</svg>
