<svg width="10" height="8" viewBox="0 0 10 8" fill="none" xmlns="http://www.w3.org/2000/svg">
<path d="M10.001 6.92808C10.001 6.73277 9.83915 6.57094 9.64383 6.57094H0.358119C0.162807 6.57094 0.000976562 6.73277 0.000976562 6.92808V7.64237C0.000976562 7.83768 0.162807 7.99951 0.358119 7.99951H9.64383C9.83915 7.99951 10.001 7.83768 10.001 7.64237V6.92808ZM10.001 4.78523C10.001 4.58991 9.83915 4.42808 9.64383 4.42808H2.50098C2.30566 4.42808 2.14383 4.58991 2.14383 4.78523V5.49951C2.14383 5.69482 2.30566 5.85665 2.50098 5.85665H9.64383C9.83915 5.85665 10.001 5.69482 10.001 5.49951V4.78523ZM10.001 2.64237C10.001 2.44706 9.83915 2.28523 9.64383 2.28523H1.07241C0.877093 2.28523 0.715262 2.44706 0.715262 2.64237V3.35665C0.715262 3.55197 0.877093 3.7138 1.07241 3.7138H9.64383C9.83915 3.7138 10.001 3.55197 10.001 3.35665V2.64237ZM10.001 0.499511C10.001 0.304199 9.83915 0.142368 9.64383 0.142368H3.21526C3.01995 0.142368 2.85812 0.304199 2.85812 0.499511V1.2138C2.85812 1.40911 3.01995 1.57094 3.21526 1.57094H9.64383C9.83915 1.57094 10.001 1.40911 10.001 1.2138V0.499511Z" fill="#1A1A1A" fill-opacity="0.7"/>
</svg>
