<svg width="10" height="8" viewBox="0 0 10 8" fill="none" xmlns="http://www.w3.org/2000/svg">
<path d="M2.85812 7.10665C2.85812 7.2071 2.77999 7.28523 2.67955 7.28523H0.893834C0.793387 7.28523 0.715262 7.2071 0.715262 7.10665V6.03523C0.715262 5.93478 0.793387 5.85665 0.893834 5.85665H2.67955C2.77999 5.85665 2.85812 5.93478 2.85812 6.03523V7.10665ZM2.85812 4.9638C2.85812 5.06424 2.77999 5.14237 2.67955 5.14237H0.893834C0.793387 5.14237 0.715262 5.06424 0.715262 4.9638V3.89237C0.715262 3.79192 0.793387 3.7138 0.893834 3.7138H2.67955C2.77999 3.7138 2.85812 3.79192 2.85812 3.89237V4.9638ZM5.71526 7.10665C5.71526 7.2071 5.63714 7.28523 5.53669 7.28523H3.75098C3.65053 7.28523 3.57241 7.2071 3.57241 7.10665V6.03523C3.57241 5.93478 3.65053 5.85665 3.75098 5.85665H5.53669C5.63714 5.85665 5.71526 5.93478 5.71526 6.03523V7.10665ZM2.85812 2.82094C2.85812 2.92139 2.77999 2.99951 2.67955 2.99951H0.893834C0.793387 2.99951 0.715262 2.92139 0.715262 2.82094V1.74951C0.715262 1.64906 0.793387 1.57094 0.893834 1.57094H2.67955C2.77999 1.57094 2.85812 1.64906 2.85812 1.74951V2.82094ZM5.71526 4.9638C5.71526 5.06424 5.63714 5.14237 5.53669 5.14237H3.75098C3.65053 5.14237 3.57241 5.06424 3.57241 4.9638V3.89237C3.57241 3.79192 3.65053 3.7138 3.75098 3.7138H5.53669C5.63714 3.7138 5.71526 3.79192 5.71526 3.89237V4.9638ZM8.57241 7.10665C8.57241 7.2071 8.49428 7.28523 8.39383 7.28523H6.60812C6.50767 7.28523 6.42955 7.2071 6.42955 7.10665V6.03523C6.42955 5.93478 6.50767 5.85665 6.60812 5.85665H8.39383C8.49428 5.85665 8.57241 5.93478 8.57241 6.03523V7.10665ZM5.71526 2.82094C5.71526 2.92139 5.63714 2.99951 5.53669 2.99951H3.75098C3.65053 2.99951 3.57241 2.92139 3.57241 2.82094V1.74951C3.57241 1.64906 3.65053 1.57094 3.75098 1.57094H5.53669C5.63714 1.57094 5.71526 1.64906 5.71526 1.74951V2.82094ZM8.57241 4.9638C8.57241 5.06424 8.49428 5.14237 8.39383 5.14237H6.60812C6.50767 5.14237 6.42955 5.06424 6.42955 4.9638V3.89237C6.42955 3.79192 6.50767 3.7138 6.60812 3.7138H8.39383C8.49428 3.7138 8.57241 3.79192 8.57241 3.89237V4.9638ZM8.57241 2.82094C8.57241 2.92139 8.49428 2.99951 8.39383 2.99951H6.60812C6.50767 2.99951 6.42955 2.92139 6.42955 2.82094V1.74951C6.42955 1.64906 6.50767 1.57094 6.60812 1.57094H8.39383C8.49428 1.57094 8.57241 1.64906 8.57241 1.74951V2.82094ZM9.28669 1.03523C9.28669 0.544154 8.88491 0.142368 8.39383 0.142368H0.893834C0.402762 0.142368 0.000976562 0.544154 0.000976562 1.03523V7.10665C0.000976562 7.59773 0.402762 7.99951 0.893834 7.99951H8.39383C8.88491 7.99951 9.28669 7.59773 9.28669 7.10665V1.03523Z" fill="#1A1A1A" fill-opacity="0.7"/>
</svg>
