<svg width="10" height="10" viewBox="0 0 10 10" fill="none" xmlns="http://www.w3.org/2000/svg">
<path d="M8.12598 7.2138C8.12598 7.35331 8.07017 7.48723 7.96973 7.58768L7.14941 8.40241C7.04897 8.49728 6.90946 8.5475 6.76995 8.5475C6.63044 8.5475 6.49093 8.49728 6.39049 8.39683L5.24093 7.2417C5.14049 7.14125 5.08468 7.00174 5.08468 6.86223C5.08468 6.69482 5.15165 6.56648 5.26883 6.45487C5.45299 6.63902 5.60924 6.85665 5.89383 6.85665C6.18959 6.85665 6.42955 6.6167 6.42955 6.32094C6.42955 6.03634 6.21191 5.88009 6.02776 5.69594C6.13937 5.57875 6.26772 5.51737 6.42955 5.51737C6.56906 5.51737 6.70857 5.57317 6.80901 5.67362L7.96973 6.83433C8.07017 6.93478 8.12598 7.06871 8.12598 7.2138ZM4.20299 3.27965C4.20299 3.44706 4.13602 3.5754 4.01883 3.68701C3.83468 3.50286 3.67843 3.28523 3.39383 3.28523C3.09808 3.28523 2.85812 3.52518 2.85812 3.82094C2.85812 4.10554 3.07575 4.26179 3.25991 4.44594C3.1483 4.56313 3.01995 4.61893 2.85812 4.61893C2.71861 4.61893 2.5791 4.56871 2.47866 4.46826L1.31794 3.30755C1.21749 3.2071 1.16169 3.07317 1.16169 2.92808C1.16169 2.78857 1.21749 2.65465 1.31794 2.5542L2.13825 1.73947C2.2387 1.6446 2.37821 1.5888 2.51772 1.5888C2.65723 1.5888 2.79674 1.6446 2.89718 1.74505L4.04674 2.90018C4.14718 3.00063 4.20299 3.14014 4.20299 3.27965ZM9.19741 7.2138C9.19741 6.78411 9.03558 6.38232 8.72866 6.0754L7.56794 4.91469C7.2666 4.61335 6.85366 4.44594 6.42955 4.44594C5.9887 4.44594 5.57575 4.62451 5.26883 4.93701L4.77776 4.44594C5.09026 4.13902 5.26883 3.72049 5.26883 3.27965C5.26883 2.85554 5.107 2.44817 4.80566 2.14683L3.65611 0.991699C3.35477 0.684779 2.94741 0.517368 2.51772 0.517368C2.09361 0.517368 1.68624 0.679199 1.38491 0.980538L0.564593 1.79527C0.263253 2.09103 0.0902623 2.50398 0.0902623 2.92808C0.0902623 3.35777 0.252093 3.75956 0.559012 4.06648L1.71973 5.22719C2.02107 5.52853 2.43401 5.69594 2.85812 5.69594C3.29897 5.69594 3.71191 5.51737 4.01883 5.20487L4.50991 5.69594C4.19741 6.00286 4.01883 6.42139 4.01883 6.86223C4.01883 7.28634 4.18066 7.69371 4.482 7.99505L5.63156 9.15018C5.9329 9.4571 6.34026 9.62451 6.76995 9.62451C7.19406 9.62451 7.60142 9.46268 7.90276 9.16134L8.72308 8.34661C9.02441 8.05085 9.19741 7.6379 9.19741 7.2138Z" fill="#1A1A1A" fill-opacity="0.7"/>
</svg>
