<svg width="10" height="8" viewBox="0 0 10 8" fill="none" xmlns="http://www.w3.org/2000/svg">
<path d="M10.001 6.92808V7.64237C10.001 7.7391 9.96563 7.8228 9.89495 7.89348C9.82427 7.96417 9.74056 7.99951 9.64383 7.99951H0.358119C0.261393 7.99951 0.177688 7.96417 0.107003 7.89348C0.0363188 7.8228 0.000976562 7.7391 0.000976562 7.64237V6.92808C0.000976562 6.83136 0.0363188 6.74765 0.107003 6.67697C0.177688 6.60628 0.261393 6.57094 0.358119 6.57094H9.64383C9.74056 6.57094 9.82427 6.60628 9.89495 6.67697C9.96563 6.74765 10.001 6.83136 10.001 6.92808ZM7.85812 4.78523V5.49951C7.85812 5.59624 7.82278 5.67994 7.75209 5.75063C7.68141 5.82131 7.5977 5.85665 7.50098 5.85665H0.358119C0.261393 5.85665 0.177688 5.82131 0.107003 5.75063C0.0363188 5.67994 0.000976562 5.59624 0.000976562 5.49951V4.78523C0.000976562 4.6885 0.0363188 4.60479 0.107003 4.53411C0.177688 4.46343 0.261393 4.42808 0.358119 4.42808H7.50098C7.5977 4.42808 7.68141 4.46343 7.75209 4.53411C7.82278 4.60479 7.85812 4.6885 7.85812 4.78523ZM9.28669 2.64237V3.35665C9.28669 3.45338 9.25135 3.53709 9.18066 3.60777C9.10998 3.67845 9.02627 3.7138 8.92955 3.7138H0.358119C0.261393 3.7138 0.177688 3.67845 0.107003 3.60777C0.0363188 3.53709 0.000976562 3.45338 0.000976562 3.35665V2.64237C0.000976562 2.54564 0.0363188 2.46194 0.107003 2.39125C0.177688 2.32057 0.261393 2.28523 0.358119 2.28523H8.92955C9.02627 2.28523 9.10998 2.32057 9.18066 2.39125C9.25135 2.46194 9.28669 2.54564 9.28669 2.64237ZM7.14383 0.499511V1.2138C7.14383 1.31052 7.10849 1.39423 7.03781 1.46491C6.96712 1.5356 6.88342 1.57094 6.78669 1.57094H0.358119C0.261393 1.57094 0.177688 1.5356 0.107003 1.46491C0.0363188 1.39423 0.000976562 1.31052 0.000976562 1.2138V0.499511C0.000976562 0.402785 0.0363188 0.31908 0.107003 0.248396C0.177688 0.177711 0.261393 0.142368 0.358119 0.142368H6.78669C6.88342 0.142368 6.96712 0.177711 7.03781 0.248396C7.10849 0.31908 7.14383 0.402785 7.14383 0.499511Z" fill="#1A1A1A" fill-opacity="0.7"/>
</svg>
