<svg width="10" height="9" viewBox="0 0 10 9" fill="none" xmlns="http://www.w3.org/2000/svg">
<path d="M9.38714 8.7138C9.58245 8.7138 9.65499 8.485 9.65499 8.32317C9.65499 7.83768 9.05232 8.06648 8.76772 7.8879C8.58915 7.7763 8.57799 7.29081 8.57799 7.10665L8.57241 1.84438C8.57241 1.64348 8.57799 1.06871 8.76772 0.94594C9.04674 0.772949 9.62151 1.01848 9.62151 0.532993C9.62151 0.365583 9.54339 0.142368 9.34249 0.142368C8.86258 0.142368 8.38267 0.181431 7.90276 0.181431C7.41169 0.181431 6.92062 0.142368 6.42955 0.142368C6.22866 0.142368 6.15053 0.365583 6.15053 0.532993C6.15053 1.00732 6.70857 0.78411 6.98758 0.951521C7.1829 1.06871 7.1829 1.6379 7.1829 1.84438L7.17732 3.63009C7.17732 3.69148 7.17732 3.74728 7.17174 3.80866C7.09919 3.8254 7.02665 3.8254 6.95968 3.8254H3.05901C2.98647 3.8254 2.91392 3.8254 2.84138 3.80866C2.8358 3.74728 2.8358 3.69148 2.8358 3.63009L2.83022 1.84438C2.83022 1.64348 2.83022 1.06871 3.02553 0.951521C3.29897 0.778529 3.85142 1.0129 3.85142 0.532993C3.85142 0.365583 3.7733 0.142368 3.57241 0.142368C3.10366 0.142368 2.62933 0.181431 2.16057 0.181431C1.64718 0.181431 1.12821 0.142368 0.614816 0.142368C0.419503 0.142368 0.346959 0.371163 0.346959 0.532993C0.346959 1.03523 0.944057 0.767368 1.22307 0.94036C1.47419 1.09103 1.43513 1.9504 1.43513 2.21826V6.75509L1.44071 7.07317C1.44071 7.26848 1.43513 7.7484 1.25656 7.87116C0.983119 8.0609 0.469727 7.86 0.469727 8.34549C0.469727 8.50174 0.553432 8.7138 0.737584 8.7138C1.21191 8.7138 1.68624 8.67473 2.16057 8.67473C2.67397 8.67473 3.19294 8.7138 3.71191 8.7138C3.90723 8.7138 3.98535 8.49058 3.98535 8.32317C3.98535 7.82094 3.32687 8.07206 3.03669 7.89348C2.83022 7.77072 2.83022 7.19036 2.83022 6.97831L2.8358 4.90799C2.8358 4.84661 2.8358 4.79081 2.84138 4.735C2.93066 4.7071 3.03111 4.71268 3.12598 4.71268H6.89272C6.982 4.71268 7.08245 4.7071 7.17174 4.735C7.17732 4.79081 7.17732 4.84661 7.17732 4.90799L7.1829 7.08991C7.1829 7.28523 7.1829 7.75398 6.99874 7.87116C6.70857 8.0609 6.15053 7.84884 6.15053 8.34549C6.15053 8.50732 6.23982 8.7138 6.42955 8.7138C6.92062 8.7138 7.41169 8.67473 7.90276 8.67473C8.39941 8.67473 8.89607 8.7138 9.38714 8.7138Z" fill="#1A1A1A" fill-opacity="0.7"/>
</svg>
