<svg width="11" height="9" viewBox="0 0 11 9" fill="none" xmlns="http://www.w3.org/2000/svg">
<path d="M3.57241 2.64237C3.57241 2.05085 3.09249 1.57094 2.50098 1.57094C1.90946 1.57094 1.42955 2.05085 1.42955 2.64237C1.42955 3.23389 1.90946 3.7138 2.50098 3.7138C3.09249 3.7138 3.57241 3.23389 3.57241 2.64237ZM9.28669 4.78523L6.96526 2.4638L4.10812 5.32094L3.21526 4.42808L1.42955 6.2138V7.28523H9.28669V4.78523ZM9.82241 0.856654C9.91727 0.856654 10.001 0.94036 10.001 1.03523V7.82094C10.001 7.91581 9.91727 7.99951 9.82241 7.99951H0.893834C0.798968 7.99951 0.715262 7.91581 0.715262 7.82094V1.03523C0.715262 0.94036 0.798968 0.856654 0.893834 0.856654H9.82241ZM10.7153 1.03523C10.7153 0.544154 10.3135 0.142368 9.82241 0.142368H0.893834C0.402762 0.142368 0.000976562 0.544154 0.000976562 1.03523V7.82094C0.000976562 8.31201 0.402762 8.7138 0.893834 8.7138H9.82241C10.3135 8.7138 10.7153 8.31201 10.7153 7.82094V1.03523Z" fill="#1A1A1A" fill-opacity="0.7"/>
</svg>
