<svg width="8" height="9" viewBox="0 0 8 9" fill="none" xmlns="http://www.w3.org/2000/svg">
<path d="M3.09808 7.91581C3.37337 8.03485 3.63379 8.09438 3.87933 8.09438C5.27813 8.09438 5.97754 7.47124 5.97754 6.22496C5.97754 5.80085 5.90127 5.46603 5.74874 5.22049C5.6483 5.0568 5.53297 4.91915 5.40276 4.80755C5.27627 4.69594 5.15165 4.61037 5.02888 4.55085C4.90611 4.48761 4.75544 4.4411 4.57687 4.41134C4.40202 4.37786 4.24577 4.3574 4.10812 4.34996C3.97419 4.34252 3.79934 4.3388 3.58357 4.3388C3.31199 4.3388 3.12412 4.3574 3.01995 4.3946C3.01995 4.59177 3.01809 4.88753 3.01437 5.28188C3.01437 5.67622 3.01437 5.97012 3.01437 6.16357C3.01437 6.19334 3.01251 6.31982 3.00879 6.54304C3.00507 6.76253 3.00321 6.9411 3.00321 7.07875C3.00693 7.2164 3.01623 7.37265 3.03111 7.5475C3.04599 7.71863 3.06831 7.8414 3.09808 7.91581ZM3.01995 3.75286C3.1762 3.7789 3.37895 3.79192 3.62821 3.79192C3.93327 3.79192 4.19927 3.76774 4.4262 3.71938C4.65313 3.67101 4.85775 3.58917 5.04004 3.47384C5.22233 3.35479 5.35998 3.18738 5.45299 2.97161C5.54971 2.75584 5.59808 2.4917 5.59808 2.1792C5.59808 1.91878 5.54413 1.69185 5.43624 1.4984C5.32836 1.30122 5.18141 1.14869 4.9954 1.04081C4.80938 0.929199 4.60849 0.847354 4.39272 0.795271C4.17694 0.743187 3.94629 0.717146 3.70075 0.717146C3.51474 0.717146 3.27293 0.741327 2.97531 0.78969C2.97531 0.975702 2.98275 1.25658 2.99763 1.63232C3.01251 2.00807 3.01995 2.29081 3.01995 2.48054C3.01995 2.58098 3.01809 2.72979 3.01437 2.92697C3.01437 3.12414 3.01437 3.27109 3.01437 3.36782C3.01437 3.53895 3.01623 3.66729 3.01995 3.75286ZM0.000976562 8.7138L0.0121373 8.18924C0.0679408 8.17436 0.226051 8.1446 0.486468 8.09996C0.746884 8.05532 0.944057 8.00509 1.07799 7.94929C1.10403 7.90465 1.12635 7.85442 1.14495 7.79862C1.16727 7.74282 1.18401 7.68143 1.19517 7.61447C1.20633 7.54378 1.21563 7.4824 1.22307 7.43032C1.23424 7.37823 1.23982 7.30941 1.23982 7.22384C1.24354 7.13456 1.2454 7.07131 1.2454 7.03411C1.2454 6.99319 1.2454 6.92622 1.2454 6.83322C1.2454 6.74021 1.2454 6.68441 1.2454 6.66581C1.2454 3.01253 1.20447 1.10591 1.12263 0.94594C1.10775 0.916178 1.06682 0.890136 0.999861 0.867815C0.932896 0.841773 0.849191 0.821312 0.748744 0.806431C0.652018 0.78783 0.560872 0.774809 0.475307 0.767368C0.389741 0.756208 0.298596 0.746907 0.201869 0.739467C0.108863 0.732026 0.0530599 0.726446 0.0344587 0.722726L0.0121373 0.259556C0.376721 0.252116 1.00916 0.231654 1.90946 0.198172C2.80976 0.16097 3.50358 0.142368 3.99093 0.142368C4.0765 0.142368 4.20299 0.144228 4.3704 0.147949C4.54153 0.147949 4.66802 0.147949 4.74986 0.147949C5.01028 0.147949 5.26325 0.17213 5.50879 0.220493C5.75805 0.268857 5.998 0.346982 6.22866 0.454868C6.45931 0.562755 6.6602 0.694824 6.83133 0.851074C7.00246 1.00732 7.14011 1.20264 7.24428 1.43701C7.34845 1.66767 7.40053 1.9225 7.40053 2.20152C7.40053 2.39497 7.36891 2.57354 7.30566 2.73723C7.24614 2.8972 7.1736 3.03113 7.08803 3.13902C7.00619 3.24319 6.88714 3.34921 6.73089 3.4571C6.57464 3.56499 6.43885 3.64869 6.32352 3.70822C6.20819 3.76774 6.05194 3.84215 5.85477 3.93143C6.42769 4.06164 6.90388 4.3109 7.28334 4.6792C7.66653 5.0475 7.85812 5.50881 7.85812 6.06313C7.85812 6.43515 7.79302 6.76997 7.66281 7.06759C7.5326 7.36149 7.35775 7.60331 7.13825 7.79304C6.92248 7.98277 6.66578 8.14088 6.36816 8.26737C6.07427 8.39758 5.77107 8.48872 5.45857 8.54081C5.14607 8.59289 4.81869 8.61893 4.47642 8.61893C4.31273 8.61893 4.0672 8.61335 3.73982 8.60219C3.41243 8.59103 3.1669 8.58545 3.00321 8.58545C2.60886 8.58545 2.03781 8.60591 1.29004 8.64683C0.542271 8.68776 0.112584 8.71008 0.000976562 8.7138Z" fill="#1A1A1A" fill-opacity="0.7"/>
</svg>
