<svg width="332" height="69" viewBox="0 0 332 69" fill="none" xmlns="http://www.w3.org/2000/svg">
<path d="M14.508 0.0456543C17.5976 0.0456543 20.2843 0.627768 22.7471 2.55321C25.3442 4.61299 26.9562 7.74743 26.9562 11.7774C26.9562 15.8074 25.2099 19.2105 22.3889 21.2703C19.9261 23.1062 17.0155 23.5092 14.0154 23.5092H4.20909V35.2409C4.20909 35.5096 3.94042 35.7335 3.67175 35.7335H0.492544C0.223878 35.7335 0 35.5096 0 35.2409V0.582993C0 0.314326 0.223878 0.0456543 0.492544 0.0456543H14.508ZM19.6126 5.32942C18.0006 4.12042 16.12 3.71743 13.8363 3.71743H4.16432V19.8374H13.2542C15.4483 19.8374 17.6424 19.5687 19.3888 18.4045C21.359 17.0612 22.6128 14.688 22.6128 11.7326C22.6575 8.82209 21.5381 6.67275 19.6126 5.32942Z" fill="black"/>
<path d="M51.0475 30.9859C51.4505 30.7173 51.7192 30.8964 51.8535 31.0755L52.8386 33.0009C53.0177 33.2696 52.8834 33.4935 52.6147 33.6726C50.6893 34.9711 47.2861 36.1802 43.6144 36.1802C39.6739 36.1802 36.4499 34.8368 34.3006 32.374C32.3304 30.1799 31.2109 27.135 31.2109 23.5976C31.2109 20.2393 32.3752 17.1944 34.3454 15.0451C36.3156 12.8957 39.2262 11.5972 42.9875 11.5972C46.7936 11.5972 49.7489 13.1196 51.5848 15.3585C53.3311 17.5526 54.2715 20.6423 54.0476 24.3588C54.0476 24.717 53.7789 24.9409 53.4207 24.9409H35.1962C35.3753 26.9112 36.0469 28.747 37.2559 30.1799C38.7784 32.0158 41.062 33.0457 43.9726 33.0457C46.7936 33.0905 49.1221 32.1501 51.0475 30.9859ZM50.3758 22.2095C50.2863 20.0602 49.5698 18.2691 48.4504 16.9705C47.2414 15.6719 45.3607 14.7316 42.9875 14.7316C40.3904 14.7316 38.3754 15.6719 37.0768 17.1944C35.9574 18.4929 35.2857 20.3288 35.1962 22.2095H50.3758Z" fill="black"/>
<path d="M107.558 11.6418C111.632 11.6418 115.215 12.7613 117.722 15.045C119.916 17.1047 121.349 20.0601 121.349 23.9109C121.349 27.8066 120.185 30.6276 118.349 32.553C115.931 35.2397 112.394 36.2696 109.349 36.2696C107.11 36.2696 105.543 36.0009 103.796 35.2397V47.3745C103.796 47.6432 103.572 47.867 103.304 47.867H100.483C100.214 47.867 99.9453 47.6432 99.9453 47.3745V12.9852C99.9453 12.6717 100.124 12.4031 100.527 12.3135C102.408 11.9105 105.005 11.6418 107.558 11.6418ZM103.751 32.0157C105.319 32.8217 106.752 33.1352 108.946 33.1352C110.916 33.1352 113.334 32.5083 115.125 30.7172C116.603 29.2843 117.498 27.0006 117.498 23.9109C117.498 21.0899 116.603 18.8958 114.991 17.3286C113.244 15.6718 110.782 14.7763 107.916 14.7763C106.572 14.7763 105.05 14.9554 103.796 15.0897V32.0157H103.751Z" fill="black"/>
<path d="M127.887 0.0446777H130.708C130.977 0.0446777 131.201 0.31335 131.201 0.582016V35.24C131.201 35.5086 130.977 35.7325 130.708 35.7325H127.887C127.618 35.7325 127.35 35.5086 127.35 35.24V0.582016C127.394 0.31335 127.663 0.0446777 127.887 0.0446777Z" fill="black"/>
<path d="M157.171 30.9859C157.574 30.7173 157.842 30.8964 157.977 31.0755L158.962 33.0009C159.141 33.2696 159.006 33.4935 158.738 33.6726C156.812 34.9711 153.409 36.1802 149.737 36.1802C145.797 36.1802 142.573 34.8368 140.424 32.374C138.453 30.1799 137.334 27.135 137.334 23.5976C137.334 20.2393 138.498 17.1944 140.468 15.0451C142.439 12.8957 145.349 11.5972 149.111 11.5972C152.917 11.5972 155.872 13.1196 157.708 15.3585C159.454 17.5526 160.395 20.6423 160.171 24.3588C160.171 24.717 159.902 24.9409 159.544 24.9409H141.319C141.498 26.9112 142.17 28.747 143.379 30.1799C144.901 32.0158 147.185 33.0457 150.096 33.0457C152.917 33.0905 155.245 32.1501 157.171 30.9859ZM156.499 22.2095C156.409 20.0602 155.693 18.2691 154.573 16.9705C153.364 15.6719 151.484 14.7316 149.111 14.7316C146.513 14.7316 144.498 15.6719 143.2 17.1944C142.08 18.4929 141.409 20.3288 141.319 22.2095H156.499Z" fill="black"/>
<path d="M167.381 36.2252C166.038 36.2252 164.963 35.1057 164.963 33.7624C164.963 32.4638 165.993 31.3892 167.381 31.3892C168.679 31.3892 169.799 32.419 169.799 33.7624C169.799 35.1505 168.679 36.2252 167.381 36.2252Z" fill="black"/>
<path d="M211.664 35.24C211.664 35.5086 211.44 35.7325 211.172 35.7325H208.082C207.813 35.7325 207.589 35.5086 207.589 35.24V7.34344L195.813 26.6426C195.544 27.0456 195.32 27.18 194.962 27.18H192.678C192.275 27.18 192.096 27.0904 191.828 26.6426L179.961 7.34344V35.24C179.961 35.5086 179.738 35.7325 179.469 35.7325H176.379C176.111 35.7325 175.887 35.5086 175.887 35.24V0.582016C175.887 0.31335 176.111 0.0446777 176.379 0.0446777H179.693C180.096 0.0446777 180.32 0.0894609 180.588 0.582016L193.708 22.344L206.918 0.582016C207.231 0.0894609 207.455 0.0446777 207.858 0.0446777H211.172C211.44 0.0446777 211.664 0.31335 211.664 0.582016V35.24Z" fill="#206BB2"/>
<path d="M220.575 16.8808C220.217 17.1047 219.948 16.9704 219.858 16.7017L218.963 14.7763C218.784 14.4628 218.873 14.2837 219.231 14.1046C221.649 12.4926 225.008 11.6418 228.232 11.6418C230.471 11.6418 233.247 12.0449 235.128 14.1942C236.337 15.5375 237.053 17.5525 237.053 20.5974V35.2397C237.053 35.5084 236.829 35.7323 236.56 35.7323H234.098C233.829 35.7323 233.605 35.5084 233.605 35.2397V34.3889H233.381C230.963 35.8218 228.859 36.2248 226.262 36.2248C224.112 36.2248 222.008 35.6875 220.396 34.568C218.828 33.4038 217.709 31.7023 217.709 29.2843C217.709 26.0603 219.679 24.2244 222.59 23.1049C225.769 21.8959 230.023 21.5825 233.157 21.4482V20.6422C233.157 18.5376 232.799 17.2838 231.948 16.2987C230.918 15.0897 229.217 14.7315 227.65 14.7315C224.739 14.7315 222.545 15.7166 220.575 16.8808ZM233.247 31.7023V24.314C230.784 24.4035 227.874 24.5826 225.456 25.2543C223.217 25.8364 221.47 27.0006 221.47 29.0604C221.47 31.9709 224.515 33.1799 227.426 33.1799C229.441 33.2247 231.411 32.6426 233.247 31.7023Z" fill="#206BB2"/>
<path d="M249.904 17.2391C248.605 19.0302 248.112 21.8512 248.112 24.1348V35.2397C248.112 35.5084 247.889 35.7323 247.62 35.7323H244.754C244.485 35.7323 244.217 35.5084 244.217 35.2397V12.5822C244.217 12.3135 244.485 12.0448 244.754 12.0448H247.441C247.709 12.0448 247.978 12.3135 247.978 12.5822V15.448H248.157C249.366 12.9404 251.65 11.6418 254.829 11.6418C257.113 11.6418 258.949 12.3135 260.471 13.5225C260.74 13.7464 260.785 13.9255 260.65 14.1942L259.486 16.5674C259.307 16.8361 258.993 16.8808 258.68 16.657C257.426 15.7614 255.993 15.1345 254.157 15.1345C252.411 15.1345 250.933 15.8062 249.904 17.2391Z" fill="#206BB2"/>
<path d="M271.129 24.762L267.771 27.8069V35.24C267.771 35.5086 267.547 35.7325 267.278 35.7325H264.457C264.189 35.7325 263.92 35.5086 263.92 35.24V0.582016C263.92 0.31335 264.189 0.0446777 264.457 0.0446777H267.278C267.547 0.0446777 267.771 0.31335 267.771 0.582016V23.5978L279.279 12.4929C279.592 12.1794 279.816 12.0003 280.264 12.0003H283.488C284.115 12.0003 284.159 12.5377 283.801 12.8959L273.681 22.2544L284.294 34.8817C284.562 35.24 284.562 35.6877 283.936 35.6877H280.667C280.174 35.6877 279.995 35.5982 279.771 35.1952L271.129 24.762Z" fill="#206BB2"/>
<path d="M307.803 30.9859C308.206 30.7173 308.475 30.8964 308.609 31.0755L309.594 33.0009C309.774 33.2696 309.639 33.4935 309.371 33.6726C307.445 34.9711 304.042 36.1802 300.37 36.1802C296.43 36.1802 293.206 34.8368 291.056 32.374C289.086 30.1799 287.967 27.135 287.967 23.5976C287.967 20.2393 289.131 17.1944 291.101 15.0451C293.071 12.8957 295.982 11.5972 299.743 11.5972C303.549 11.5972 306.505 13.1196 308.341 15.3585C310.087 17.5526 311.027 20.6423 310.803 24.3588C310.803 24.717 310.535 24.9409 310.177 24.9409H291.952C292.131 26.9112 292.803 28.747 294.012 30.1799C295.534 32.0158 297.818 33.0457 300.728 33.0457C303.549 33.0905 305.878 32.1501 307.803 30.9859ZM307.132 22.2095C307.042 20.0602 306.326 18.2691 305.206 16.9705C303.997 15.6719 302.117 14.7316 299.743 14.7316C297.146 14.7316 295.131 15.6719 293.833 17.1944C292.713 18.4929 292.042 20.3288 291.952 22.2095H307.132Z" fill="#206BB2"/>
<path d="M321.233 27.4036C321.233 29.0156 321.457 30.3142 322.039 31.2097C322.71 32.3739 323.875 32.9561 325.755 32.9561C327.188 32.9561 328.532 32.5978 330.054 31.4784C330.412 31.2097 330.681 31.2545 330.86 31.5232L331.8 33.583C331.979 33.8516 331.845 34.0755 331.576 34.2546C329.741 35.5532 327.323 36.2248 324.815 36.2248C321.994 36.2248 320.158 35.3293 318.994 33.9412C317.785 32.4187 317.382 30.2246 317.382 27.8514V15.0897H314.606C314.337 15.0897 314.068 14.8658 314.068 14.5972V12.5822C314.068 12.3135 314.337 12.0448 314.606 12.0448H317.382V7.47752C317.382 7.20886 317.651 6.94019 317.919 6.94019H320.74C321.009 6.94019 321.278 7.20886 321.278 7.47752V12.0448H329.517C329.785 12.0448 330.054 12.3135 330.054 12.5822V14.642C330.054 14.9106 329.785 15.1345 329.517 15.1345H321.278V27.4036H321.233Z" fill="#206BB2"/>
<path d="M4.38641 55.6135H5.19241L9.58062 65.3303H8.55074L7.34173 62.6884H2.23709L1.07285 65.3303H0.0429688L4.38641 55.6135ZM2.64007 61.7929H6.98352L4.7894 56.9121L2.64007 61.7929Z" fill="black"/>
<path d="M17.0151 62.1063H12.3134V65.3303H11.373V58.1211H12.3134V61.2107H17.0151V58.1211H17.9554V65.3303H17.0151V62.1063Z" fill="black"/>
<path d="M24.086 57.9419C26.4145 57.9419 27.9817 59.5091 27.9817 61.7032C27.9817 63.8526 26.3697 65.4645 24.086 65.4645C21.8024 65.4645 20.1904 63.8973 20.1904 61.7032C20.1456 59.5539 21.7576 57.9419 24.086 57.9419ZM24.086 64.6138C25.7876 64.6138 26.9966 63.4496 26.9966 61.7032C26.9966 60.0017 25.7428 58.7927 24.086 58.7927C22.3845 58.7927 21.1755 59.9569 21.1755 61.7032C21.1307 63.4048 22.3397 64.6138 24.086 64.6138Z" fill="black"/>
<path d="M35.8217 62.1063H31.12V65.3303H30.1797V58.1211H31.12V61.2107H35.8217V58.1211H36.762V65.3303H35.8217V62.1063Z" fill="black"/>
<path d="M39.4004 65.3303V58.1211H40.3407V63.987L45.2215 58.1211H46.1171V65.3303H45.1767V59.4644L40.2959 65.3303H39.4004Z" fill="black"/>
<path d="M48.8085 58.1211H49.6592L52.7041 61.9272L55.7042 58.1211H56.5102V65.3303H55.5699V59.6883L52.7041 63.3153L49.704 59.6883V65.3303H48.7637V58.1211H48.8085Z" fill="black"/>
<path d="M64.7924 62.1063H60.0907V65.3303H59.1504V58.1211H60.0907V61.2107H64.7924V58.1211H65.7327V65.3303H64.7924V62.1063Z" fill="black"/>
<path d="M68.3304 58.9718C69.0021 58.3449 70.1663 57.9419 71.1962 57.9419C73.2112 57.9419 74.2411 59.0166 74.2411 60.8524V65.3302H73.3008V64.1212C72.853 64.7929 71.9127 65.4198 70.5246 65.4198C68.9126 65.4198 67.8379 64.569 67.8379 63.2705C67.8379 61.748 69.1812 61.0763 71.4649 61.0763C72.047 61.0763 72.9425 61.1659 73.3455 61.3002C73.3455 59.8226 72.8978 58.7927 71.1067 58.7927C70.2559 58.7927 69.4947 59.1509 68.8678 59.6434L68.3304 58.9718ZM73.3455 63.0018V62.151C72.8978 62.0167 72.2709 61.9271 71.5992 61.9271C69.8977 61.9271 68.823 62.2406 68.823 63.2257C68.823 64.0764 69.629 64.6138 70.7932 64.6138C72.1813 64.6138 73.0321 63.6287 73.3455 63.0018Z" fill="black"/>
<path d="M82.5706 58.1211V65.3303H81.6303V62.6436H79.5705L77.1525 65.3303H75.9883L78.4959 62.5541C77.3316 62.4197 76.4809 61.5242 76.4809 60.4047C76.4809 59.1957 77.2869 58.1211 79.6153 58.1211H82.5706ZM79.481 61.7929H81.6303V58.9719H79.481C78.0481 58.9719 77.466 59.5987 77.466 60.4047C77.466 61.2107 78.2272 61.7929 79.481 61.7929Z" fill="black"/>
<path d="M96.72 63.9421C96.1827 64.9272 94.8841 65.4645 93.7647 65.4645C91.3914 65.4645 89.8242 63.9869 89.8242 61.7032C89.8242 59.5987 91.3467 57.9419 93.7199 57.9419C94.9289 57.9419 96.0931 58.4792 96.5856 59.33L95.8692 59.8226C95.3319 59.1509 94.6602 58.7927 93.7199 58.7927C92.0631 58.7927 90.8093 60.0017 90.8093 61.7032C90.8093 63.4496 92.0631 64.6138 93.8542 64.6138C94.7945 64.6138 95.6005 64.1212 96.0931 63.4496L96.72 63.9421Z" fill="black"/>
<path d="M104.644 63.9421C103.972 64.972 102.897 65.4645 101.688 65.4645C99.3153 65.4645 97.748 63.9869 97.748 61.7032C97.748 59.5987 99.0466 57.9419 101.509 57.9419C103.48 57.9419 104.912 59.2404 104.912 61.2107C104.912 61.4793 104.868 61.748 104.868 61.9719H98.7332C98.7779 63.6287 100.032 64.569 101.733 64.569C102.674 64.569 103.569 64.0317 104.017 63.36L104.644 63.9421ZM98.7332 61.1659H103.927C103.883 59.6882 102.942 58.7927 101.465 58.7927C99.8526 58.7927 98.8675 59.8226 98.7332 61.1659Z" fill="black"/>
<path d="M105.99 58.1211H112.796V58.9719H109.841V65.2855H108.901V58.9719H105.99V58.1211Z" fill="black"/>
<path d="M114.496 58.1211H115.436V60.4495H117.541C119.825 60.4495 120.541 61.5242 120.541 62.8675C120.541 64.1213 119.78 65.2855 117.451 65.2855H114.496V58.1211ZM115.436 61.3451V64.4795H117.407C119.019 64.4795 119.556 63.8974 119.556 62.9123C119.556 61.9272 118.929 61.3451 117.407 61.3451H115.436Z" fill="black"/>
<path d="M133.302 59.0166H128.69V65.3303H127.75V58.1211H134.243V65.3303H133.302V59.0166Z" fill="black"/>
<path d="M140.333 57.9419C142.662 57.9419 144.229 59.5091 144.229 61.7032C144.229 63.8526 142.617 65.4645 140.333 65.4645C138.005 65.4645 136.438 63.8973 136.438 61.7032C136.438 59.5539 138.005 57.9419 140.333 57.9419ZM140.333 64.6138C142.035 64.6138 143.244 63.4496 143.244 61.7032C143.244 60.0017 141.99 58.7927 140.333 58.7927C138.632 58.7927 137.423 59.9569 137.423 61.7032C137.423 63.4048 138.632 64.6138 140.333 64.6138Z" fill="black"/>
<path d="M146.467 58.1211H147.407V61.569L151.527 58.1211H152.78L148.795 61.4346L153.004 65.2855H151.706L148.034 61.972L147.362 62.5541V65.2855H146.467V58.1211Z" fill="black"/>
<path d="M155.11 67.2559C155.199 67.3007 155.379 67.3455 155.468 67.3455C156.095 67.3455 156.543 66.9872 157.08 65.6439L157.259 65.1961L153.453 58.166H154.573L157.752 64.0767L160.17 58.166H161.2L158.2 65.3305C157.17 67.7485 156.498 68.241 155.468 68.241C155.244 68.241 155.02 68.1962 154.841 68.1514L155.11 67.2559Z" fill="black"/>
<path d="M168.453 59.0166H163.841V65.3303H162.9V58.1211H169.393V65.3303H168.453V59.0166Z" fill="black"/>
<path d="M172.08 58.1211H173.02V61.569L177.14 58.1211H178.394L174.408 61.4346L178.617 65.2855H177.319L173.647 61.972L172.976 62.5541V65.2855H172.035V58.1211H172.08Z" fill="black"/>
<path d="M180.318 65.3303V58.1211H181.259V63.987L186.139 58.1211H187.035V65.3303H186.095V59.4644L181.214 65.3303H180.318Z" fill="black"/>
<path d="M194.781 65.3303V58.1211H195.722V63.987L200.602 58.1211H201.498V65.3303H200.558V59.4644L195.677 65.3303H194.781Z" fill="black"/>
<path d="M214.799 59.0166H210.186V65.3303H209.246V58.1211H215.739V65.3303H214.799V59.0166Z" fill="black"/>
<path d="M218.381 58.121H219.321V59.1957C219.903 58.3001 220.978 57.9419 221.963 57.9419C224.157 57.9419 225.456 59.4644 225.456 61.5689C225.456 63.763 223.933 65.4198 221.784 65.4198C220.665 65.4198 219.948 65.1511 219.321 64.569V68.0617H218.381V58.121ZM219.276 60.539V63.3152C219.814 64.2556 220.754 64.6138 221.694 64.6138C223.262 64.6138 224.426 63.4048 224.426 61.6584C224.426 59.9569 223.441 58.7927 221.829 58.7927C220.53 58.8375 219.59 59.6882 219.276 60.539Z" fill="black"/>
<path d="M231.097 57.9419C233.425 57.9419 234.992 59.5091 234.992 61.7032C234.992 63.8526 233.38 65.4645 231.097 65.4645C228.768 65.4645 227.201 63.8973 227.201 61.7032C227.201 59.5539 228.768 57.9419 231.097 57.9419ZM231.097 64.6138C232.798 64.6138 234.007 63.4496 234.007 61.7032C234.007 60.0017 232.754 58.7927 231.097 58.7927C229.395 58.7927 228.186 59.9569 228.186 61.7032C228.186 63.4048 229.395 64.6138 231.097 64.6138Z" fill="black"/>
<path d="M236.023 64.4797H236.829C237.68 63.3155 237.859 61.6139 237.859 59.6885V58.166H243.277V64.4797H244.397V67.1216H243.501V65.3305H236.919V67.1216H236.023V64.4797ZM238.71 59.8228C238.71 61.6139 238.486 63.3155 237.815 64.4349H242.337V58.972H238.71V59.8228Z" fill="black"/>
<path d="M246.051 58.9718C246.723 58.3449 247.887 57.9419 248.917 57.9419C250.932 57.9419 251.962 59.0166 251.962 60.8524V65.3302H251.021V64.1212C250.574 64.7929 249.633 65.4198 248.245 65.4198C246.633 65.4198 245.559 64.569 245.559 63.2705C245.559 61.748 246.902 61.0763 249.186 61.0763C249.768 61.0763 250.663 61.1659 251.066 61.3002C251.066 59.8226 250.618 58.7927 248.827 58.7927C247.977 58.7927 247.215 59.1509 246.588 59.6434L246.051 58.9718ZM251.066 63.0018V62.151C250.618 62.0167 249.992 61.9271 249.32 61.9271C247.618 61.9271 246.544 62.2406 246.544 63.2257C246.544 64.0764 247.35 64.6138 248.514 64.6138C249.902 64.6138 250.798 63.6287 251.066 63.0018Z" fill="black"/>
<path d="M253.753 58.1211H254.918L258.455 61.4794V58.1211H259.395V61.4794L262.933 58.1211H264.097L260.604 61.4346L264.276 65.2855H263.067L259.888 61.972L259.395 62.4197V65.2855H258.455V62.4197L257.873 62.0168L254.783 65.2855H253.619L257.201 61.4346L253.753 58.1211Z" fill="black"/>
<path d="M266.021 65.3303V58.1211H266.962V63.987L271.843 58.1211H272.738V65.3303H271.798V59.4644L266.917 65.3303H266.021Z" fill="black"/>
<path d="M280.484 58.1211H281.425V61.569L285.544 58.1211H286.798L282.813 61.4346L287.022 65.2855H285.723L282.051 61.972L281.38 62.5541V65.2855H280.439V58.1211H280.484Z" fill="black"/>
<path d="M288.68 58.9718C289.352 58.3449 290.516 57.9419 291.546 57.9419C293.561 57.9419 294.591 59.0166 294.591 60.8524V65.3302H293.65V64.1212C293.203 64.7929 292.262 65.4198 290.874 65.4198C289.262 65.4198 288.188 64.569 288.188 63.2705C288.188 61.748 289.531 61.0763 291.814 61.0763C292.397 61.0763 293.292 61.1659 293.695 61.3002C293.695 59.8226 293.247 58.7927 291.456 58.7927C290.606 58.7927 289.844 59.1509 289.217 59.6434L288.68 58.9718ZM293.65 63.0018V62.151C293.203 62.0167 292.576 61.9271 291.904 61.9271C290.203 61.9271 289.128 62.2406 289.128 63.2257C289.128 64.0764 289.934 64.6138 291.098 64.6138C292.531 64.6138 293.382 63.6287 293.65 63.0018Z" fill="black"/>
<path d="M296.248 64.4797H297.054C297.905 63.3155 298.084 61.6139 298.084 59.6885V58.166H303.502V64.4797H304.621V67.1216H303.726V65.3305H297.144V67.1216H296.248V64.4797ZM298.979 59.8228C298.979 61.6139 298.756 63.3155 298.084 64.4349H302.606V58.972H298.979V59.8228Z" fill="black"/>
<path d="M306.369 58.121H307.309V59.1957C307.892 58.3001 308.966 57.9419 309.951 57.9419C312.145 57.9419 313.444 59.4644 313.444 61.5689C313.444 63.763 311.922 65.4198 309.772 65.4198C308.653 65.4198 307.936 65.1511 307.309 64.569V68.0617H306.369V58.121ZM307.309 60.539V63.3152C307.847 64.2556 308.787 64.6138 309.727 64.6138C311.295 64.6138 312.459 63.4048 312.459 61.6584C312.459 59.9569 311.474 58.7927 309.862 58.7927C308.518 58.8375 307.623 59.6882 307.309 60.539Z" fill="black"/>
<path d="M319.126 57.9419C321.455 57.9419 323.022 59.5091 323.022 61.7032C323.022 63.8526 321.41 65.4645 319.126 65.4645C316.798 65.4645 315.23 63.8973 315.23 61.7032C315.23 59.5539 316.798 57.9419 319.126 57.9419ZM319.126 64.6138C320.828 64.6138 322.037 63.4496 322.037 61.7032C322.037 60.0017 320.783 58.7927 319.126 58.7927C317.425 58.7927 316.216 59.9569 316.216 61.7032C316.171 63.4048 317.425 64.6138 319.126 64.6138Z" fill="black"/>
<path d="M325.221 58.1211H328.266C330.236 58.1211 331.221 58.5689 331.221 59.9122C331.221 60.6734 330.863 61.166 330.191 61.5242C331.087 61.7481 331.49 62.375 331.49 63.3153C331.49 64.6139 330.415 65.3303 328.4 65.3303H325.221V58.1211ZM326.161 58.9719V61.2555H328.624C329.609 61.2555 330.236 60.8077 330.236 60.0913C330.236 59.1957 329.34 59.0166 328.221 59.0166H326.161V58.9719ZM326.161 62.0615V64.4795H328.31C329.743 64.4795 330.549 64.1213 330.549 63.2705C330.549 62.4198 329.878 62.1063 328.534 62.1063H326.161V62.0615Z" fill="black"/>
<path d="M67.616 31.792L66.0488 31.4337C66.0488 31.3442 68.019 23.5081 77.2433 23.5081V25.1201C69.3176 25.0753 67.6608 31.5233 67.616 31.792Z" fill="#206BB2"/>
<path d="M87.6259 32.4188C87.2677 32.4188 86.9095 32.1502 86.8199 31.792C86.7304 31.5233 85.1184 25.1201 77.1927 25.1201C76.7449 25.1201 76.3867 24.7618 76.3867 24.3141C76.3867 23.8663 76.7449 23.5081 77.1927 23.5081C86.4169 23.5081 88.3871 31.3442 88.3871 31.4337C88.4767 31.8815 88.208 32.2845 87.805 32.4188C87.7603 32.374 87.7155 32.4188 87.6259 32.4188Z" fill="#206BB2"/>
<path d="M77.2422 23.5974C80.2593 23.5974 82.705 21.1516 82.705 18.1345C82.705 15.1174 80.2593 12.6716 77.2422 12.6716C74.2251 12.6716 71.7793 15.1174 71.7793 18.1345C71.7793 21.1516 74.2251 23.5974 77.2422 23.5974Z" fill="#206BB2"/>
<path d="M77.2414 24.4484C73.7487 24.4484 70.9277 21.6274 70.9277 18.1347C70.9277 14.642 73.7487 11.821 77.2414 11.821C80.7341 11.821 83.5551 14.642 83.5551 18.1347C83.5551 21.6274 80.7341 24.4484 77.2414 24.4484ZM77.2414 13.5226C74.6891 13.5226 72.6293 15.5824 72.6293 18.1347C72.6293 20.687 74.6891 22.7468 77.2414 22.7468C79.7937 22.7468 81.8535 20.687 81.8535 18.1347C81.8535 15.5824 79.7937 13.5226 77.2414 13.5226Z" fill="#206BB2"/>
<path d="M77.2375 36.0904C82.7276 36.0904 87.1782 33.5644 87.1782 30.4484C87.1782 27.3324 82.7276 24.8064 77.2375 24.8064C71.7475 24.8064 67.2969 27.3324 67.2969 30.4484C67.2969 33.5644 71.7475 36.0904 77.2375 36.0904Z" fill="#206BB2"/>
<path d="M77.2444 36.27C67.2589 36.27 59.1094 28.1204 59.1094 18.135C59.1094 8.14955 67.2589 0 77.2444 0C87.2298 0 95.3793 8.14955 95.3793 18.135C95.3793 28.1204 87.2298 36.27 77.2444 36.27ZM77.2444 1.70156C68.1545 1.70156 60.8109 9.08988 60.8109 18.135C60.8109 27.1801 68.1993 34.5684 77.2444 34.5684C86.2895 34.5684 93.6778 27.1801 93.6778 18.135C93.6778 9.08988 86.2895 1.70156 77.2444 1.70156Z" fill="#206BB2"/>
<g opacity="0.99">
<path opacity="0.99" d="M56.9168 39.3146C56.6929 39.3146 56.469 39.2251 56.3347 39.0907C56.0212 38.7773 56.0212 38.24 56.3347 37.9265L64.4395 29.8218C64.7529 29.5083 65.2902 29.5083 65.6037 29.8218C65.9171 30.1352 65.9171 30.6725 65.6037 30.986L57.4989 39.0907C57.3198 39.2251 57.1407 39.3146 56.9168 39.3146Z" fill="#206BB2"/>
</g>
</svg>
