<svg width="134" height="134" viewBox="0 0 134 134" fill="none" xmlns="http://www.w3.org/2000/svg">
<path d="M31.9077 70.1958H38.2947V76.5829H44.6771V82.9656H12.7694V76.5829H19.1518V63.8131H31.9212V70.1958H31.9077ZM114.866 127.622H121.24V121.239H114.866V127.622ZM38.2902 70.1958H44.6726V63.8131H38.2902V70.1958ZM127.613 127.622H134V121.239H127.613V127.622ZM51.0596 134H63.8155V127.617H51.0596V134ZM108.479 134V127.617H102.092V134H108.479ZM82.9584 134H89.3408V121.235H82.9584V134ZM31.9077 51.0523V57.435H51.0506V51.0523H31.9077ZM25.5343 57.4305V51.0478H12.7649V63.8131H19.1473V57.4305H25.5343ZM44.6726 44.6652H0.00895154V0.00447592H44.6726V44.6652ZM38.2902 6.38713H6.38244V38.287H38.2902V6.38713ZM12.7649 121.239H31.9033V102.096H12.7649V121.239ZM76.5714 114.852V121.239H82.9628V114.852H76.5714ZM31.9077 12.7698H12.7694V31.9043H31.9077V12.7698ZM133.996 0.00447592V44.6696H89.3318V0.00447592H133.996ZM127.613 6.38713H95.7143V38.287H127.613V6.38713ZM0 89.3259H44.6682V133.991H0V89.3259ZM6.38692 127.622H38.2947V95.713H6.38692V127.622ZM6.38692 51.0523H0V82.9611H6.38692V51.0523ZM89.3318 82.9522V89.3259H95.7143V82.9522H89.3318ZM70.189 108.478V102.096H63.811V108.483H51.0551V121.253H63.811V127.635H70.189V114.865H76.5759V108.483H70.189V108.478ZM51.0596 25.5306H63.8155V19.139H51.0596V25.5306ZM102.097 76.5785H114.871V82.9611H121.249V63.8221H114.871V51.0523H108.479V70.1958H89.3497V76.5829H95.7322V82.9656H102.115V76.5829H102.097V76.5785ZM108.479 95.713H102.092V89.3259H95.7098V102.096H76.5714V108.483H89.3453V121.253H95.7277V127.635H102.11V114.865H127.627V108.483H108.488V95.713H108.479ZM108.479 95.713H114.871V82.9522H108.479V95.713ZM57.433 95.713V89.3259H63.8065V82.9522H70.1845V76.5695H76.5714V63.7997H95.7098V51.0299H89.3274V57.4126H82.9449V31.8909H76.5625V19.1211H82.9449V0H76.5625V12.7653H70.18V0H51.0417V12.7653H57.4241V6.38266H63.7976V19.139H70.18V38.2825H76.5625V44.6652H70.18V57.4305H63.7976V44.6652H57.4241V38.287H51.0417V51.0523H57.4241V57.435H51.0417V76.5829H57.4241V63.8131H63.7976V76.5829H57.4241V82.9656H51.0417V102.096H63.7976V95.713H57.433ZM127.613 102.096V95.713H114.857V102.096H127.613ZM121.231 12.7698H102.097V31.9043H121.231V12.7698ZM70.189 95.713H82.9628V89.3259H76.5714V82.9522H70.1845V95.713H70.189ZM82.9584 82.9522V76.5695H76.567V82.9522H82.9584ZM121.231 57.4305H134V51.0478H121.231V57.4305ZM127.613 108.478H134V102.096H127.613V108.478ZM127.613 70.1958H134V63.8131H127.613V70.1958ZM70.189 38.287H63.811V44.6696H70.189V38.287Z" fill="black"/>
</svg>
