<svg width="54" height="8" viewBox="0 0 54 8" fill="none" xmlns="http://www.w3.org/2000/svg">
<path d="M3.91238 0L5.12123 2.44969L7.82478 2.8425L5.86858 4.74931L6.33023 7.44181L3.91238 6.17061L1.49438 7.44181L1.9562 4.74931L0 2.8425L2.70338 2.44969L3.91238 0Z" fill="#FAC917"/>
<path d="M15.2414 0L16.4502 2.44969L19.1538 2.8425L17.1976 4.74931L17.6592 7.44181L15.2414 6.17061L12.8234 7.44181L13.2852 4.74931L11.329 2.8425L14.0324 2.44969L15.2414 0Z" fill="#FAC917"/>
<path d="M26.5703 0L27.7792 2.44969L30.4827 2.8425L28.5265 4.74931L28.9882 7.44181L26.5703 6.17061L24.1523 7.44181L24.6142 4.74931L22.658 2.8425L25.3613 2.44969L26.5703 0Z" fill="#FAC917"/>
<path d="M37.8993 0L39.1082 2.44969L41.8117 2.8425L39.8555 4.74931L40.3172 7.44181L37.8993 6.17061L35.4813 7.44181L35.9431 4.74931L33.9869 2.8425L36.6903 2.44969L37.8993 0Z" fill="#FAC917"/>
<path d="M49.2283 0L50.4371 2.44969L53.1407 2.8425L51.1845 4.74931L51.6462 7.44181L49.2283 6.17061L46.8103 7.44181L47.2721 4.74931L45.3159 2.8425L48.0193 2.44969L49.2283 0Z" fill="#FAC917"/>
</svg>
