<svg width="59" height="68" viewBox="0 0 59 68" fill="none" xmlns="http://www.w3.org/2000/svg">
<g filter="url(#filter0_d)">
<path d="M33.2266 39.7593C33.0127 39.5443 32.7421 39.3835 32.4624 39.2495C31.8535 38.9581 31.1876 38.7813 30.5264 38.6217V43.3244C31.5996 43.2131 32.8317 42.8556 33.3952 41.936C33.6642 41.4967 33.7177 40.957 33.6082 40.468C33.5487 40.203 33.4259 39.9598 33.2266 39.7593Z" fill="#62BB96"/>
<path d="M25.3575 31.2887C25.1882 31.562 25.082 31.8724 25.0526 32.2024C25.0233 32.5331 25.0398 32.901 25.1534 33.2123C25.2617 33.5089 25.4884 33.7279 25.7224 33.9043C25.9849 34.1017 26.2737 34.2559 26.5678 34.3866C26.8146 34.4964 27.0921 34.6014 27.3913 34.7028V30.0001C26.6355 30.1784 25.8097 30.5589 25.3575 31.2887Z" fill="#62BB96"/>
<path d="M32.3703 13.6199C36.7551 9.9135 39.685 1.56344 37.882 1.19823C35.4861 0.712783 30.2836 2.84141 27.769 3.21645C24.2024 3.64976 20.3179 -0.675186 18.1375 1.73554C16.3646 3.69562 19.4085 10.8238 24.1706 13.9292C9.96292 20.9556 -10.007 56.2285 24.8316 58.7879C73.0367 62.3293 48.8987 20.467 32.3703 13.6199ZM36.5102 41.4379C36.3619 42.813 35.6376 44.0566 34.555 44.9008C33.4119 45.7923 31.9782 46.2069 30.5536 46.3231V47.8425C30.5536 48.249 30.3772 48.6422 30.0747 48.9113C29.659 49.2815 29.0481 49.3728 28.5436 49.1388C28.0454 48.9082 27.7181 48.3941 27.7181 47.8425V46.1818C27.4738 46.1351 27.2313 46.0796 26.9916 46.0134C25.6603 45.6453 24.4254 44.9278 23.5233 43.8663C23.0739 43.3372 22.7076 42.7369 22.4542 42.0887C22.388 41.9194 22.329 41.7468 22.2774 41.5724C22.2306 41.4145 22.1823 41.254 22.1656 41.0894C22.1375 40.8134 22.1919 40.5317 22.3198 40.2857C22.5827 39.7798 23.1366 39.4742 23.7022 39.525C24.2588 39.5747 24.7467 39.9634 24.9219 40.4973C24.9759 40.6617 25.0125 40.8303 25.0731 40.993C25.1332 41.1545 25.2058 41.3116 25.2911 41.4612C25.4596 41.7557 25.6706 42.0273 25.9136 42.263C26.4147 42.7487 27.0528 43.0644 27.7181 43.2522V37.6072C26.4172 37.2684 25.0745 36.8307 24.0003 35.9903C23.4782 35.5816 23.0353 35.074 22.7451 34.473C22.439 33.8388 22.3122 33.1323 22.3071 32.4305C22.3018 31.718 22.4363 31.0117 22.7317 30.3625C23.0084 29.7546 23.4068 29.2089 23.8952 28.7564C24.9395 27.7892 26.3268 27.2497 27.7182 27.0516V25.4743C27.7182 25.0679 27.8947 24.6746 28.1971 24.4054C28.613 24.0354 29.2236 23.944 29.7283 24.1779C30.2263 24.4087 30.5538 24.9227 30.5538 25.4743V27.043C30.7392 27.0665 30.924 27.0946 31.1079 27.1281C32.4743 27.3769 33.8107 27.9447 34.8099 28.9359C35.2832 29.4054 35.6707 29.9648 35.9432 30.5749C36.0193 30.745 36.0859 30.9192 36.1435 31.0967C36.1973 31.2623 36.2512 31.4328 36.2769 31.6055C36.3178 31.8814 36.2761 32.1663 36.1587 32.4187C35.9184 32.9356 35.3794 33.2648 34.8123 33.2404C34.2551 33.216 33.7503 32.8509 33.5508 32.3268C33.4914 32.171 33.4617 32.006 33.4011 31.8505C33.3399 31.6931 33.2607 31.543 33.1694 31.4012C32.992 31.1255 32.7621 30.8892 32.4997 30.6944C31.9314 30.2722 31.2421 30.0522 30.5533 29.9292V35.3312C31.3719 35.5284 32.1911 35.7435 32.9753 36.0547C34.1606 36.525 35.2838 37.2461 35.9307 38.3832C35.8304 38.2061 35.7327 38.0335 35.9341 38.3891C36.1319 38.7385 36.0375 38.572 35.9382 38.3969C36.4529 39.3096 36.6221 40.4011 36.5102 41.4379Z" fill="#62BB96"/>
</g>
<rect x="21.3477" y="23.4517" width="18.7095" height="27.1288" fill="white"/>
<path d="M33.2266 39.7593C33.0127 39.5443 32.7421 39.3835 32.4624 39.2495C31.8535 38.9581 31.1876 38.7813 30.5264 38.6217V43.3244C31.5996 43.2131 32.8317 42.8556 33.3952 41.936C33.6642 41.4967 33.7177 40.957 33.6082 40.468C33.5487 40.203 33.4259 39.9598 33.2266 39.7593Z" fill="#2C6BF7"/>
<path d="M25.3575 31.2887C25.1882 31.562 25.082 31.8724 25.0526 32.2024C25.0233 32.5331 25.0398 32.901 25.1534 33.2123C25.2617 33.5089 25.4884 33.7279 25.7224 33.9043C25.9849 34.1017 26.2737 34.2559 26.5678 34.3866C26.8146 34.4964 27.0921 34.6014 27.3913 34.7028V30.0001C26.6355 30.1784 25.8097 30.5589 25.3575 31.2887Z" fill="#2C6BF7"/>
<path d="M32.3703 13.6199C36.7551 9.9135 39.685 1.56344 37.882 1.19823C35.4861 0.712783 30.2836 2.84141 27.769 3.21645C24.2024 3.64976 20.3179 -0.675186 18.1375 1.73554C16.3646 3.69562 19.4085 10.8238 24.1706 13.9292C9.96292 20.9556 -10.007 56.2285 24.8316 58.7879C73.0367 62.3293 48.8987 20.467 32.3703 13.6199ZM36.5102 41.4379C36.3619 42.813 35.6376 44.0566 34.555 44.9008C33.4119 45.7923 31.9782 46.2069 30.5536 46.3231V47.8425C30.5536 48.249 30.3772 48.6422 30.0747 48.9113C29.659 49.2815 29.0481 49.3728 28.5436 49.1388C28.0454 48.9082 27.7181 48.3941 27.7181 47.8425V46.1818C27.4738 46.1351 27.2313 46.0796 26.9916 46.0134C25.6603 45.6453 24.4254 44.9278 23.5233 43.8663C23.0739 43.3372 22.7076 42.7369 22.4542 42.0887C22.388 41.9194 22.329 41.7468 22.2774 41.5724C22.2306 41.4145 22.1823 41.254 22.1656 41.0894C22.1375 40.8134 22.1919 40.5317 22.3198 40.2857C22.5827 39.7798 23.1366 39.4742 23.7022 39.525C24.2588 39.5747 24.7467 39.9634 24.9219 40.4973C24.9759 40.6617 25.0125 40.8303 25.0731 40.993C25.1332 41.1545 25.2058 41.3116 25.2911 41.4612C25.4596 41.7557 25.6706 42.0273 25.9136 42.263C26.4147 42.7487 27.0528 43.0644 27.7181 43.2522V37.6072C26.4172 37.2684 25.0745 36.8307 24.0003 35.9903C23.4782 35.5816 23.0353 35.074 22.7451 34.473C22.439 33.8388 22.3122 33.1323 22.3071 32.4305C22.3018 31.718 22.4363 31.0117 22.7317 30.3625C23.0084 29.7546 23.4068 29.2089 23.8952 28.7564C24.9395 27.7892 26.3268 27.2497 27.7182 27.0516V25.4743C27.7182 25.0679 27.8947 24.6746 28.1971 24.4054C28.613 24.0354 29.2236 23.944 29.7283 24.1779C30.2263 24.4087 30.5538 24.9227 30.5538 25.4743V27.043C30.7392 27.0665 30.924 27.0946 31.1079 27.1281C32.4743 27.3769 33.8107 27.9447 34.8099 28.9359C35.2832 29.4054 35.6707 29.9648 35.9432 30.5749C36.0193 30.745 36.0859 30.9192 36.1435 31.0967C36.1973 31.2623 36.2512 31.4328 36.2769 31.6055C36.3178 31.8814 36.2761 32.1663 36.1587 32.4187C35.9184 32.9356 35.3794 33.2648 34.8123 33.2404C34.2551 33.216 33.7503 32.8509 33.5508 32.3268C33.4914 32.171 33.4617 32.006 33.4011 31.8505C33.3399 31.6931 33.2607 31.543 33.1694 31.4012C32.992 31.1255 32.7621 30.8892 32.4997 30.6944C31.9314 30.2722 31.2421 30.0522 30.5533 29.9292V35.3312C31.3719 35.5284 32.1911 35.7435 32.9753 36.0547C34.1606 36.525 35.2838 37.2461 35.9307 38.3832C35.8304 38.2061 35.7327 38.0335 35.9341 38.3891C36.1319 38.7385 36.0375 38.572 35.9382 38.3969C36.4529 39.3096 36.6221 40.4011 36.5102 41.4379Z" fill="#2C6BF7"/>
<defs>
<filter id="filter0_d" x="0.445312" y="9.15527e-05" width="57.8108" height="68" filterUnits="userSpaceOnUse" color-interpolation-filters="sRGB">
<feFlood flood-opacity="0" result="BackgroundImageFix"/>
<feColorMatrix in="SourceAlpha" type="matrix" values="0 0 0 0 0 0 0 0 0 0 0 0 0 0 0 0 0 0 127 0"/>
<feOffset dy="4"/>
<feGaussianBlur stdDeviation="2.5"/>
<feColorMatrix type="matrix" values="0 0 0 0 0.172549 0 0 0 0 0.419608 0 0 0 0 0.968627 0 0 0 0.3 0"/>
<feBlend mode="normal" in2="BackgroundImageFix" result="effect1_dropShadow"/>
<feBlend mode="normal" in="SourceGraphic" in2="effect1_dropShadow" result="shape"/>
</filter>
</defs>
</svg>
