<svg width="73" height="70" viewBox="0 0 73 70" fill="none" xmlns="http://www.w3.org/2000/svg">
<g filter="url(#filter0_d)">
<path d="M43.4989 41.1378L36.6661 37.9852L33.3834 35.2116L28.109 40.4684H28.1052L30.3812 55.7148C30.389 55.7672 30.3759 55.8207 30.3447 55.8636L27.9647 59.1274C27.9267 59.1795 27.8663 59.2104 27.802 59.2104C27.7376 59.2104 27.6773 59.1795 27.6394 59.1274L25.2596 55.8636C25.2283 55.8207 25.215 55.7672 25.223 55.7148L27.4991 40.468H27.4956L22.2214 35.2116L18.9388 37.9852L12.1059 41.1378C11.0949 41.5533 10.1015 42.1841 9.59604 43.2828C9.59604 43.2828 2.16905 61.0001 6.19747 61.0001H49.407C53.4357 61.0001 46.0087 43.2828 46.0087 43.2828C45.5686 42.2288 44.5098 41.5532 43.4989 41.1378Z" fill="#62BB96"/>
<path d="M64.0047 3.9476C61.4934 2.04696 58.1667 1.00009 54.6366 1.00009C51.1069 1.00009 47.7795 2.04696 45.2685 3.9476C42.6918 5.89801 41.2729 8.5111 41.2729 11.3062C41.2729 13.695 42.3406 16.0016 44.2884 17.8368V24.9415C44.2884 25.227 44.4445 25.4901 44.695 25.6269C44.8113 25.6903 44.9397 25.722 45.0679 25.722C45.2149 25.722 45.3618 25.6805 45.4901 25.5974L51.9741 21.4084C52.8464 21.5438 53.7404 21.6124 54.6367 21.6124C58.1667 21.6124 61.4936 20.5657 64.0048 18.6646C66.5814 16.7142 68.0003 14.1011 68.0003 11.3062C68.0003 8.51096 66.5814 5.89787 64.0047 3.9476ZM62.2786 16.3752C60.2615 17.9022 57.5475 18.7431 54.6366 18.7431C53.8875 18.7431 53.1393 18.686 52.4128 18.5729L51.337 18.4058L47.1519 21.1097V16.5964L46.25 15.7467C44.8869 14.4622 44.1361 12.8854 44.1361 11.3064C44.1361 9.43258 45.1512 7.63237 46.9941 6.23731C49.0113 4.7104 51.7253 3.86955 54.6362 3.86955C57.547 3.86955 60.2611 4.7104 62.2782 6.23717C64.1214 7.63209 65.1363 9.43229 65.1363 11.3062C65.1367 13.1798 64.1215 14.98 62.2786 16.3752Z" fill="#62BB96"/>
<path d="M27.8021 36.6214C33.0138 36.6214 40.0054 30.0974 40.1239 19.1573C40.1994 11.5657 36.5912 7.02238 27.8021 7.02238C19.0126 7.02238 15.4036 11.5657 15.4805 19.1573C15.5992 30.0974 21.7024 36.6214 27.8021 36.6214ZM25.3257 22.2061C31.6981 22.8861 37.2531 13.9568 37.1631 21.9519C37.1091 26.7379 32.6785 33.9647 27.803 33.9647C22.686 33.9647 19.1555 27.9586 18.4432 21.9544C17.6713 15.4431 29.5986 16.9265 25.3257 22.2061Z" fill="#62BB96"/>
</g>
<path d="M22.1797 35.2668L22.5391 34.9419L32.6172 34.617L33.3789 35.2237L33.89 37.7398V51.1618L29.6695 59.9873L22.5391 57.9648L22.1797 35.2668Z" fill="white"/>
<path d="M17.8945 22.0839C17.8945 15.417 22.3418 14.8496 24.5654 15.3993L32.8392 14.8785L38.4707 17.7867C38.4851 19.8412 38.5053 24.011 38.4707 24.254C38.4274 24.5579 37.2577 29.7665 33.1424 33.4993C29.8501 36.4856 25.6193 35.4381 23.9154 34.5411C21.9084 33.1666 17.8945 28.7509 17.8945 22.0839Z" fill="white"/>
<path d="M52.117 20.1727L45.7058 23.7753C46.0956 23.3411 45.3594 18.0459 44.4064 16.4399C43.4534 14.8339 43.4532 11.7521 42.7601 10.2763C42.0669 8.80057 45.0127 8.01928 46.6155 4.80729C48.2183 1.59531 53.33 3.93921 57.5752 2.68046C61.8205 1.42171 66.0658 8.93075 67.2788 11.0142C68.2491 12.681 64.102 16.3965 61.9072 18.0459L52.117 20.1727Z" fill="white"/>
<path d="M43.4989 41.1378L36.6661 37.9852L33.3834 35.2116L28.109 40.4684H28.1052L30.3812 55.7148C30.389 55.7672 30.3759 55.8207 30.3447 55.8636L27.9647 59.1274C27.9267 59.1795 27.8663 59.2104 27.802 59.2104C27.7376 59.2104 27.6773 59.1795 27.6394 59.1274L25.2596 55.8636C25.2283 55.8207 25.215 55.7672 25.223 55.7148L27.4991 40.468H27.4956L22.2214 35.2116L18.9388 37.9852L12.1059 41.1378C11.0949 41.5533 10.1015 42.1841 9.59604 43.2828C9.59604 43.2828 2.16905 61.0001 6.19747 61.0001H49.407C53.4357 61.0001 46.0087 43.2828 46.0087 43.2828C45.5686 42.2288 44.5098 41.5532 43.4989 41.1378Z" fill="#2C6BF7"/>
<path d="M64.0047 3.9476C61.4934 2.04696 58.1667 1.00009 54.6366 1.00009C51.1069 1.00009 47.7795 2.04696 45.2685 3.9476C42.6918 5.89801 41.2729 8.5111 41.2729 11.3062C41.2729 13.695 42.3406 16.0016 44.2884 17.8368V24.9415C44.2884 25.227 44.4445 25.4901 44.695 25.6269C44.8113 25.6903 44.9397 25.722 45.0679 25.722C45.2149 25.722 45.3618 25.6805 45.4901 25.5974L51.9741 21.4084C52.8464 21.5438 53.7404 21.6124 54.6367 21.6124C58.1667 21.6124 61.4936 20.5657 64.0048 18.6646C66.5814 16.7142 68.0003 14.1011 68.0003 11.3062C68.0003 8.51096 66.5814 5.89787 64.0047 3.9476ZM62.2786 16.3752C60.2615 17.9022 57.5475 18.7431 54.6366 18.7431C53.8875 18.7431 53.1393 18.686 52.4128 18.5729L51.337 18.4058L47.1519 21.1097V16.5964L46.25 15.7467C44.8869 14.4622 44.1361 12.8854 44.1361 11.3064C44.1361 9.43258 45.1512 7.63237 46.9941 6.23731C49.0113 4.7104 51.7253 3.86955 54.6362 3.86955C57.547 3.86955 60.2611 4.7104 62.2782 6.23717C64.1214 7.63209 65.1363 9.43229 65.1363 11.3062C65.1367 13.1798 64.1215 14.98 62.2786 16.3752Z" fill="#2C6BF7"/>
<path d="M27.8021 36.6214C33.0138 36.6214 40.0054 30.0974 40.1239 19.1573C40.1994 11.5657 36.5912 7.02238 27.8021 7.02238C19.0126 7.02238 15.4036 11.5657 15.4805 19.1573C15.5992 30.0974 21.7024 36.6214 27.8021 36.6214ZM25.3257 22.2061C31.6981 22.8861 37.2531 13.9568 37.1631 21.9519C37.1091 26.7379 32.6785 33.9647 27.803 33.9647C22.686 33.9647 19.1555 27.9586 18.4432 21.9544C17.6713 15.4431 29.5986 16.9265 25.3257 22.2061Z" fill="#2C6BF7"/>
<defs>
<filter id="filter0_d" x="0" y="9.15527e-05" width="73.0003" height="70" filterUnits="userSpaceOnUse" color-interpolation-filters="sRGB">
<feFlood flood-opacity="0" result="BackgroundImageFix"/>
<feColorMatrix in="SourceAlpha" type="matrix" values="0 0 0 0 0 0 0 0 0 0 0 0 0 0 0 0 0 0 127 0"/>
<feOffset dy="4"/>
<feGaussianBlur stdDeviation="2.5"/>
<feColorMatrix type="matrix" values="0 0 0 0 0.172549 0 0 0 0 0.419608 0 0 0 0 0.968627 0 0 0 0.3 0"/>
<feBlend mode="normal" in2="BackgroundImageFix" result="effect1_dropShadow"/>
<feBlend mode="normal" in="SourceGraphic" in2="effect1_dropShadow" result="shape"/>
</filter>
</defs>
</svg>
